<?xml version="1.0" standalone="no"?>
<!DOCTYPE svg PUBLIC "-//W3C//DTD SVG 20010904//EN"
 "http://www.w3.org/TR/2001/REC-SVG-20010904/DTD/svg10.dtd">
<svg version="1.0" xmlns="http://www.w3.org/2000/svg"
 width="976.000000pt" height="339.000000pt" viewBox="0 0 976.000000 339.000000"
 preserveAspectRatio="xMidYMid meet">

<g transform="translate(0.000000,339.000000) scale(0.100000,-0.100000)"
fill="#000000" stroke="none">
<path d="M1643 3218 c-13 -6 -23 -17 -23 -25 0 -7 -4 -13 -9 -13 -5 0 -11 -7
-15 -15 -4 -13 -2 -14 14 -5 14 7 20 7 20 0 0 -17 25 -11 51 11 18 15 20 22
10 28 -7 5 -12 12 -11 17 2 13 -13 14 -37 2z"/>
<path d="M2478 3204 c-10 -22 -17 -25 -52 -23 -23 1 -65 -5 -95 -14 -56 -17
-72 -14 -107 20 -19 20 -117 20 -170 1 -25 -9 -37 -8 -64 6 -41 20 -84 21
-100 1 -8 -10 -29 -15 -54 -15 -35 1 -110 -4 -140 -9 -5 0 -6 -46 -2 -105 4
-71 3 -107 -4 -111 -6 -4 -10 -16 -8 -28 3 -19 -3 -22 -34 -25 -21 -2 -38 1
-38 5 0 5 -14 10 -32 11 -40 3 -44 7 -28 27 7 8 9 15 4 15 -4 0 1 7 12 15 14
11 15 14 4 15 -19 0 -66 -31 -85 -56 -9 -12 -18 -15 -22 -9 -11 14 -162 13
-171 -1 -6 -9 -68 -44 -79 -44 -1 0 -3 16 -3 36 0 20 -9 49 -20 65 -12 15 -28
51 -36 79 -14 47 -17 50 -47 50 -50 0 -72 9 -82 33 -8 17 -20 23 -57 25 -26 2
-64 -1 -83 -7 -24 -6 -55 -6 -93 1 -53 10 -61 9 -107 -14 -28 -14 -73 -29
-100 -32 l-50 -7 -30 -82 c-25 -68 -30 -98 -31 -177 0 -52 -2 -97 -3 -100 -18
-36 -15 -355 5 -537 l5 -52 42 2 c37 2 43 -1 61 -32 12 -21 15 -31 6 -26 -10
6 -12 2 -7 -23 4 -19 2 -32 -3 -32 -15 0 -12 -28 3 -33 9 -3 9 -7 -2 -20 -12
-15 -11 -17 4 -17 14 0 15 -3 5 -15 -11 -13 -10 -14 6 -8 18 7 18 6 1 -20
l-17 -27 30 0 c34 0 37 6 13 39 -16 23 -15 25 6 42 12 10 21 26 19 35 -2 9 3
19 11 22 9 3 11 -1 7 -16 -5 -15 -1 -24 13 -31 22 -12 34 -1 25 23 -4 9 0 18
9 22 20 7 15 64 -7 76 -20 11 -46 4 -46 -13 0 -6 6 -9 14 -6 8 3 17 -1 20 -10
7 -18 -1 -33 -17 -33 -16 0 -50 62 -39 69 5 3 12 18 16 34 9 36 30 34 46 -4 8
-18 18 -28 26 -25 8 3 14 0 14 -7 0 -8 3 -7 9 2 9 15 -3 34 -26 42 -9 3 -9 9
-3 19 8 12 12 13 19 1 7 -10 13 -11 30 -1 21 11 22 10 11 -9 -7 -14 -7 -27 -1
-38 10 -19 11 -25 11 -48 0 -8 5 -15 10 -15 6 0 10 7 10 15 0 8 8 15 19 15 10
0 25 9 32 19 9 12 30 21 62 24 48 5 60 -6 32 -27 -10 -8 -15 -36 -16 -101 -3
-105 4 -137 29 -128 14 5 13 3 -2 -9 -13 -10 -15 -17 -7 -22 7 -5 8 -13 2 -24
-5 -9 -12 -38 -16 -65 -4 -26 -11 -49 -15 -52 -14 -9 -2 -128 15 -144 15 -15
16 -14 10 4 -6 19 -6 19 5 1 10 -14 10 -20 0 -26 -16 -10 -14 -160 5 -250 7
-36 13 -57 14 -47 1 12 5 16 14 11 7 -5 6 0 -3 11 -14 17 -13 18 3 12 10 -4
27 -3 37 3 13 7 20 6 24 -6 3 -9 13 -14 20 -11 8 3 17 -1 20 -9 4 -10 -2 -14
-22 -14 -16 0 -32 -4 -38 -10 -8 -8 -34 -16 -65 -19 -4 -1 -9 -10 -12 -21 -3
-12 -11 -18 -20 -15 -11 5 -14 -10 -13 -85 1 -104 10 -118 70 -114 41 4 47
-13 17 -40 -11 -10 -21 -27 -23 -39 -2 -11 -9 -23 -17 -25 -10 -3 -12 0 -8 12
4 9 2 16 -3 16 -10 0 -14 -20 -10 -53 1 -10 -4 -24 -10 -32 -17 -21 6 -126 26
-118 19 7 18 22 -3 45 -15 17 -15 18 5 18 13 0 22 -6 22 -14 0 -18 40 -47 52
-40 5 3 4 11 -2 19 -7 9 -6 16 6 26 14 11 16 10 14 -6 -4 -37 0 -47 15 -41 16
6 22 -28 6 -38 -4 -3 -6 -17 -3 -31 3 -19 9 -24 21 -20 10 4 8 -2 -7 -17 -13
-13 -30 -32 -38 -43 l-16 -20 7 20 c12 36 16 65 8 64 -19 -3 -27 2 -15 10 11
7 11 9 -2 14 -9 4 -15 3 -14 -1 2 -13 -14 -42 -23 -42 -6 0 -5 9 1 21 13 23 8
35 -9 24 -6 -3 -11 -19 -11 -36 0 -21 -5 -29 -17 -28 -10 0 -13 3 -6 5 7 3 9
12 6 20 -3 10 -12 1 -26 -27 -11 -23 -29 -44 -39 -47 -10 -2 -18 -11 -18 -19
0 -11 -7 -14 -21 -10 -11 3 -39 -1 -61 -9 -30 -10 -39 -11 -35 -1 2 6 17 16
33 21 16 4 37 12 46 17 13 7 16 5 12 -6 -4 -8 -2 -15 4 -15 11 0 24 39 16 51
-3 5 -19 -1 -37 -11 -38 -24 -60 -26 -32 -3 18 14 18 15 1 9 -10 -3 -24 -2
-30 3 -13 11 -56 -4 -56 -19 0 -7 -8 -9 -20 -5 -11 3 -20 3 -20 -2 0 -5 -14
-10 -30 -11 -25 -2 -30 1 -29 20 0 22 1 22 9 3 7 -18 9 -18 15 -3 4 9 13 14
20 12 8 -3 21 -1 31 4 12 7 6 9 -27 10 -24 1 -57 2 -74 4 -23 2 -30 -1 -29
-15 1 -9 -2 -17 -7 -17 -8 0 -13 15 -10 33 0 4 -3 7 -9 7 -5 0 -10 -6 -10 -12
0 -8 -3 -9 -8 -3 -9 13 -42 16 -42 4 0 -5 4 -9 10 -9 5 0 7 -7 3 -16 -5 -13
-1 -15 18 -10 13 3 18 3 12 0 -17 -7 -16 -19 2 -81 15 -50 17 -51 47 -47 18 2
44 -2 58 -9 20 -11 35 -11 66 -2 29 8 57 8 113 -2 41 -7 78 -10 82 -7 5 3 9 0
9 -5 0 -7 6 -8 18 -2 53 27 72 32 91 26 13 -4 28 -1 37 6 13 10 17 10 24 0 4
-8 13 -10 20 -6 10 6 12 2 8 -13 -4 -15 -2 -22 8 -22 8 0 14 -4 14 -10 0 -5
-4 -10 -10 -10 -5 0 -10 -4 -10 -10 0 -5 7 -10 15 -10 9 0 15 -10 16 -22 1
-18 2 -19 6 -5 2 9 8 15 13 12 4 -3 13 2 20 10 9 10 9 15 1 15 -6 0 -11 17
-11 42 0 40 0 41 20 23 15 -14 20 -15 21 -4 0 8 3 35 5 62 5 48 -7 62 -25 30
-12 -23 -26 -10 -16 14 5 10 7 21 7 26 -1 4 2 7 6 7 10 0 10 46 0 55 -4 4 -2
18 4 31 13 28 6 39 -18 30 -9 -3 -14 -12 -10 -21 3 -8 0 -15 -7 -15 -7 -1 -1
-10 12 -20 l24 -20 -24 4 c-13 3 -27 5 -31 5 -5 1 -8 10 -8 21 0 11 -4 20 -10
20 -19 0 -10 33 14 55 15 13 29 19 37 15 7 -5 19 -5 28 -2 14 5 14 4 1 -14
-14 -17 -14 -18 2 -6 25 20 31 68 17 133 -13 57 -13 58 -33 41 -15 -13 -18
-14 -14 -2 3 8 -1 21 -9 29 -13 12 -14 11 -8 -9 5 -15 4 -20 -4 -16 -6 4 -18
0 -27 -8 -8 -9 -21 -16 -27 -16 -8 0 -7 4 1 12 17 17 15 56 -3 74 -13 13 -17
13 -40 -2 -23 -15 -25 -15 -19 0 3 9 10 16 15 16 5 0 9 8 9 19 0 11 9 21 23
25 32 8 39 7 32 -5 -4 -6 1 -16 11 -23 12 -9 14 -15 6 -20 -7 -4 -12 -17 -12
-29 0 -38 33 6 34 47 1 19 6 39 11 43 4 4 6 4 3 -2 -3 -5 -2 -19 3 -30 7 -18
8 -18 9 5 2 14 2 31 1 38 -1 6 3 12 9 12 5 0 10 -6 10 -12 0 -9 4 -8 10 2 11
17 13 87 4 142 -5 25 -11 35 -20 31 -8 -3 -14 0 -14 6 0 6 9 11 19 11 22 0 36
16 22 24 -5 4 -12 2 -16 -4 -3 -5 -15 -10 -27 -10 -15 0 -19 5 -15 20 4 15 0
20 -14 20 -10 0 -19 5 -19 11 0 5 5 7 11 3 8 -5 50 11 88 33 8 5 6 303 -1 303
-4 0 -5 12 -2 28 3 15 6 122 8 237 2 166 0 218 -12 248 -11 29 -13 60 -8 127
5 72 4 89 -8 93 -30 12 -223 7 -284 -7 -59 -13 -66 -13 -107 5 -24 11 -46 23
-49 27 -11 17 -16 152 -7 175 16 41 14 128 -4 195 -13 52 -14 72 -5 117 13 62
33 86 49 58 9 -17 10 -17 17 0 5 14 13 17 38 11 17 -4 40 -7 50 -8 29 -2 36
-42 36 -219 1 -87 4 -165 7 -172 4 -11 25 -14 87 -14 109 2 126 -4 126 -44 l1
-32 23 29 c14 16 22 35 19 43 -3 7 -1 13 5 13 5 0 12 9 15 20 6 22 7 22 132
24 126 2 161 40 45 49 -30 3 -62 7 -70 10 -8 3 -25 7 -37 10 -19 4 -20 3 -10
-14 6 -10 18 -19 25 -19 7 0 10 -5 6 -11 -4 -7 -9 -8 -17 0 -5 5 -22 7 -37 5
l-27 -6 -1 111 c0 61 -4 120 -7 131 -6 17 -2 20 27 19 18 0 58 -4 89 -8 47 -6
61 -4 79 11 19 16 25 16 39 5 25 -21 116 -21 151 -1 26 16 31 16 47 2 10 -8
26 -18 37 -22 13 -4 17 -12 12 -29 -20 -69 -20 -79 1 -75 11 1 27 -3 36 -11
10 -8 17 -9 17 -3 0 6 -5 14 -10 17 -7 4 -5 14 4 27 9 12 13 32 9 49 -5 26 -3
28 41 34 45 7 57 20 35 42 -18 18 -7 58 16 58 11 0 26 8 33 18 14 18 38 24 27
7 -3 -5 1 -10 9 -10 8 0 20 -8 25 -18 8 -14 20 -177 25 -327 1 -22 4 -44 8
-50 15 -24 18 -104 6 -165 -15 -70 -16 -121 -4 -216 7 -49 5 -63 -8 -76 -12
-13 -16 -37 -16 -105 0 -104 7 -133 29 -133 14 0 14 2 1 10 -12 8 -11 10 8 10
13 0 22 -6 22 -15 0 -9 -9 -15 -21 -15 -19 0 -20 -4 -14 -79 3 -44 2 -97 -4
-118 -16 -64 -17 -118 -1 -115 11 3 11 0 1 -12 -8 -9 -11 -37 -10 -70 1 -31 0
-59 -4 -63 -4 -3 -7 -26 -7 -50 0 -40 2 -43 28 -44 15 -1 30 -1 33 -1 6 1 4
-52 -2 -68 0 -3 -1 -13 0 -22 1 -10 -2 -18 -8 -18 -6 0 -8 -7 -5 -15 4 -8 1
-15 -5 -15 -6 0 -10 6 -9 12 2 8 -8 13 -24 14 -24 1 -26 -1 -16 -14 8 -9 13
-47 14 -91 1 -43 9 -95 19 -121 11 -29 14 -56 10 -79 -14 -73 -16 -171 -4
-171 6 0 9 8 6 19 -4 16 0 17 27 11 45 -10 51 -13 49 -28 0 -8 8 -5 23 9 29
27 24 37 -16 31 -22 -3 -30 0 -30 10 0 8 -11 20 -24 26 -19 8 -24 18 -23 46 1
24 6 36 15 36 9 0 12 -6 8 -16 -4 -10 -1 -14 6 -12 14 5 19 37 19 103 0 22 2
47 5 55 4 13 6 13 15 0 9 -12 10 -11 6 6 -3 17 0 20 13 17 20 -5 35 34 20 52
-13 16 -2 25 31 25 15 0 31 5 34 10 3 6 15 10 27 10 17 0 19 -4 14 -25 -7 -28
-4 -30 25 -12 17 10 23 9 36 -8 14 -18 15 -18 9 -2 -3 10 -6 21 -6 23 0 2 -7
4 -15 4 -8 0 -15 5 -15 11 0 6 8 8 19 4 16 -5 19 0 23 36 3 32 0 44 -14 53
-10 6 -18 16 -18 23 0 7 -5 13 -11 13 -6 0 -9 -6 -7 -12 3 -7 -1 -19 -9 -26
-17 -18 -17 -32 2 -32 21 0 19 -20 -2 -21 -48 -3 -71 15 -50 39 9 12 8 14 -8
10 -11 -2 -19 -11 -19 -21 1 -9 -2 -17 -7 -17 -12 0 -11 17 1 40 13 25 -12 21
-44 -8 -14 -12 -28 -17 -31 -12 -3 5 4 11 15 15 11 4 18 10 15 15 -3 4 2 11
11 14 12 5 15 14 11 35 -5 26 -3 29 31 39 61 18 78 20 95 10 13 -7 18 -3 23
18 6 21 2 31 -16 46 -24 19 -45 24 -35 8 3 -6 -5 -10 -19 -10 -20 0 -24 4 -19
17 5 12 2 15 -10 10 -11 -4 -17 -1 -17 9 0 8 5 12 10 9 6 -3 10 -1 10 4 0 6 5
11 10 11 6 0 10 -7 10 -15 0 -8 7 -15 15 -15 20 0 19 6 -7 30 l-22 20 27 0
c17 0 27 -5 27 -15 0 -8 6 -15 14 -15 9 0 12 8 9 24 -5 26 -28 40 -46 29 -7
-4 -8 0 -4 11 5 12 3 16 -5 13 -8 -2 -23 15 -35 40 -19 36 -21 47 -10 63 7 13
18 18 29 14 24 -7 23 13 -1 28 -10 6 -17 18 -14 25 8 19 20 16 26 -7 11 -41
27 -20 25 33 -2 54 -19 83 -43 73 -9 -3 -12 0 -9 9 3 8 -1 22 -10 30 -9 9 -16
26 -15 38 0 21 1 21 9 2 8 -19 9 -19 9 -1 1 15 4 16 16 6 21 -17 29 -7 15 19
-10 19 -8 21 19 21 24 0 31 6 40 31 15 42 14 139 0 139 -8 0 -8 4 -1 13 6 7 8
18 4 24 -11 17 -36 -2 -29 -21 4 -9 2 -16 -3 -16 -6 0 -10 5 -10 11 0 5 -4 7
-10 4 -14 -9 -12 16 4 63 8 22 12 43 9 46 -3 3 -1 11 5 18 5 7 9 43 7 80 -1
36 2 72 6 80 6 8 1 19 -14 30 l-22 17 25 -2 c14 -1 25 3 25 8 0 6 -6 9 -12 9
-7 -1 -13 4 -13 11 0 7 -10 15 -21 18 -17 5 -20 11 -15 29 3 13 6 33 6 46 0
13 6 22 16 22 10 0 13 6 9 19 -6 20 15 34 38 25 10 -4 12 3 9 26 -4 28 -6 30
-21 15 -21 -18 -35 -20 -24 -2 4 6 6 23 4 36 -2 18 1 22 13 18 9 -4 16 -2 16
3 0 6 -5 10 -12 10 -9 0 -9 3 0 12 7 7 12 30 12 51 0 54 40 183 51 166 5 -8 9
-25 9 -39 l1 -25 16 23 c19 27 33 28 33 2 0 -11 5 -20 10 -20 6 0 10 5 10 10
0 6 5 10 10 10 6 0 10 -7 10 -16 0 -10 6 -14 15 -10 11 4 15 -1 15 -18 0 -30
9 -38 26 -21 8 7 25 12 39 11 14 -2 25 1 25 6 0 5 5 6 10 3 6 -3 10 -1 10 5 0
7 6 8 18 2 19 -10 43 -5 54 12 5 7 8 4 8 -6 0 -20 30 -25 31 -5 0 6 2 26 4 42
2 17 1 22 -2 13 -2 -10 -12 -18 -22 -18 -10 0 -21 -3 -25 -7 -4 -4 -24 -8 -46
-9 l-40 -2 15 27 c9 18 15 65 16 127 2 103 -8 144 -37 144 -8 0 -12 5 -9 10 3
6 16 10 28 10 21 1 21 1 -3 15 -34 20 -39 19 -52 -11z m-573 -114 c-20 -22
-39 -27 -32 -7 2 6 10 11 16 10 6 -2 11 2 11 7 0 6 5 10 12 10 6 0 3 -9 -7
-20z m95 -41 c0 -14 -7 -19 -25 -19 -14 0 -25 4 -25 9 0 5 -16 8 -35 5 -21 -2
-35 0 -35 7 0 6 12 10 28 8 15 -1 38 3 52 8 30 13 40 8 40 -18z m506 -147 c-9
-8 -26 10 -26 26 1 15 2 15 15 -2 8 -11 13 -21 11 -24z m-716 6 c0 -19 -2 -20
-10 -8 -13 19 -13 30 0 30 6 0 10 -10 10 -22z m653 -3 c-3 -8 -9 -15 -14 -15
-10 0 -12 24 -3 33 11 11 24 -3 17 -18z m-703 -95 c0 -5 -5 -10 -11 -10 -5 0
-7 5 -4 10 3 6 8 10 11 10 2 0 4 -4 4 -10z m280 -30 c0 -12 -28 -25 -36 -17
-9 9 6 27 22 27 8 0 14 -5 14 -10z m-295 -18 c-3 -3 -11 0 -18 7 -9 10 -8 11
6 5 10 -3 15 -9 12 -12z m-625 -552 c0 -5 11 -10 25 -10 14 0 25 -3 26 -7 0
-5 2 -17 4 -27 2 -11 -3 -29 -11 -40 -8 -11 -14 -17 -14 -12 0 5 -8 2 -18 -7
-17 -16 -18 -15 -18 20 1 27 -3 37 -16 39 -11 1 -18 -4 -19 -14 0 -11 -2 -12
-6 -4 -7 17 -32 15 -39 -3 -10 -25 -27 -17 -22 10 3 13 0 26 -6 29 -6 3 1 3
16 1 19 -2 25 0 22 10 -6 14 13 22 54 24 12 0 22 -3 22 -9z m-235 -10 c-3 -5
1 -10 9 -10 10 0 13 -6 10 -15 -5 -12 -10 -13 -20 -4 -8 6 -21 8 -31 4 -32
-14 -42 -13 -36 2 6 15 37 31 61 32 7 1 10 -3 7 -9z m-40 -60 c3 -5 1 -10 -4
-10 -6 0 -11 5 -11 10 0 6 2 10 4 10 3 0 8 -4 11 -10z m381 -249 c0 -11 -4
-17 -9 -14 -4 2 -16 -1 -25 -8 -9 -8 -6 -1 7 14 14 15 25 27 26 27 0 0 1 -9 1
-19z m-59 -31 c2 -30 -1 -40 -12 -40 -8 0 -15 5 -15 10 0 6 4 10 9 10 4 0 6
11 4 24 -4 18 -10 23 -26 20 -21 -4 -21 -4 -2 5 34 16 40 12 42 -29z m-141
-285 c-8 -8 -18 -15 -22 -15 -3 0 -1 7 6 15 7 8 17 15 22 15 5 0 3 -7 -6 -15z
m1094 -274 c0 -13 -18 -24 -47 -27 -31 -3 -29 10 5 23 36 14 42 15 42 4z m4
-39 c2 -4 -4 -13 -14 -20 -16 -10 -18 -8 -17 8 1 20 21 27 31 12z m-84 -272
c0 -5 -7 -7 -15 -4 -8 4 -12 10 -9 15 6 11 24 2 24 -11z m6 -47 c1 -25 -12
-50 -21 -41 -4 3 -1 16 5 29 11 19 10 21 -4 16 -10 -4 -16 -1 -16 9 0 24 35
12 36 -13z m-1006 -44 c0 -6 -4 -7 -10 -4 -5 3 -10 11 -10 16 0 6 5 7 10 4 6
-3 10 -11 10 -16z m45 -19 c-3 -5 -12 -10 -18 -10 -7 0 -6 4 3 10 19 12 23 12
15 0z m-44 -283 c-10 -9 -11 -8 -5 6 3 10 9 15 12 12 3 -3 0 -11 -7 -18z
m-250 -40 c-7 -7 -14 -8 -21 -1 -6 6 -2 10 12 11 16 2 18 -1 9 -10z m296 -13
c-3 -3 -12 -4 -19 -1 -8 3 -5 6 6 6 11 1 17 -2 13 -5z m83 -154 c0 -5 -2 -10
-4 -10 -3 0 -8 5 -11 10 -3 6 -1 10 4 10 6 0 11 -4 11 -10z"/>
<path d="M5639 3204 c-12 -34 -4 -58 17 -50 9 3 22 6 29 6 26 0 23 28 -6 49
l-29 22 -11 -27z"/>
<path d="M5842 3218 c2 -7 -4 -13 -12 -13 -8 0 -22 -5 -30 -10 -8 -5 -27 -10
-42 -10 -37 -1 -52 -18 -44 -49 7 -27 29 -35 42 -15 4 8 9 7 14 -2 10 -16 96
-15 115 1 11 9 19 9 28 2 7 -6 23 -9 34 -6 25 7 42 70 22 88 -8 8 -13 8 -16
-2 -3 -6 -9 -10 -14 -6 -8 4 -18 7 -64 17 -5 2 -16 6 -23 11 -8 5 -12 3 -10
-6z"/>
<path d="M6330 3220 c0 -5 4 -10 9 -10 6 0 13 5 16 10 3 6 -1 10 -9 10 -9 0
-16 -4 -16 -10z"/>
<path d="M6459 3224 c-1 -5 -1 -12 -1 -15 1 -4 -8 -5 -18 -2 -12 3 -20 0 -20
-7 0 -8 -10 -11 -27 -7 -19 3 -42 -3 -71 -20 -41 -25 -76 -26 -128 -6 -10 4
-14 -2 -14 -21 0 -28 18 -34 38 -14 9 9 12 9 12 -2 0 -16 -42 -80 -52 -80 -5
0 -8 -10 -8 -23 0 -12 -11 -39 -25 -60 -22 -31 -25 -47 -23 -95 2 -41 7 -57
17 -57 20 0 40 -36 23 -42 -6 -3 -9 -10 -6 -15 4 -7 2 -8 -4 -4 -19 11 -69
-110 -74 -178 -5 -56 -4 -58 23 -68 27 -9 28 -12 24 -60 -2 -28 -5 -52 -7 -54
-2 -1 -16 -5 -32 -8 -16 -3 -37 -14 -48 -26 -37 -39 -68 -22 -68 39 0 14 -9
34 -20 44 -11 9 -20 14 -20 11 0 -4 -6 -1 -13 5 -11 8 -18 6 -32 -9 -21 -23
-55 -27 -55 -5 0 8 -4 15 -10 15 -5 0 -10 -7 -10 -15 0 -17 -5 -17 -35 -6 -12
5 -30 3 -46 -5 -15 -7 -29 -11 -31 -8 -3 2 -3 -7 0 -21 2 -14 8 -28 13 -31 5
-3 9 -10 9 -15 0 -6 -5 -7 -11 -4 -5 4 -19 -1 -29 -10 -17 -15 -19 -15 -28 1
-9 15 -11 15 -30 -4 -11 -11 -23 -17 -27 -14 -3 4 -10 1 -14 -6 -4 -8 -17 -15
-27 -16 -10 -2 -18 -8 -17 -14 2 -6 4 -25 5 -41 2 -34 8 -37 26 -19 9 9 12 8
12 -6 0 -12 5 -16 15 -13 8 4 17 2 20 -3 4 -6 11 -10 18 -10 6 0 -4 14 -23 31
l-35 31 38 -21 38 -21 -7 22 c-6 21 -6 21 10 5 10 -9 14 -21 11 -27 -3 -5 3
-10 14 -10 12 0 22 -6 22 -12 1 -7 2 -20 3 -28 0 -8 9 -16 20 -18 12 -3 16 0
11 8 -10 16 24 39 57 40 15 0 30 5 33 10 9 15 42 -6 50 -31 4 -12 10 -17 14
-12 8 12 38 24 71 29 56 8 150 8 150 0 0 -4 8 -5 18 -1 53 21 135 5 117 -24
-3 -6 -1 -11 4 -11 6 0 11 7 11 15 0 16 36 39 50 30 5 -3 11 -1 15 4 3 7 15 7
29 1 13 -5 27 -6 31 -2 4 4 11 7 16 7 12 0 13 10 0 45 -6 20 -23 36 -48 47
-51 24 -55 30 -48 88 4 28 8 64 10 80 2 17 4 33 4 36 1 3 10 16 21 29 17 19
20 20 20 6 0 -31 25 -11 28 23 l3 32 25 -26 24 -26 0 28 c0 17 -8 34 -20 43
-13 9 -18 21 -14 33 4 13 2 17 -5 13 -10 -6 -17 30 -12 58 1 5 -4 13 -11 18
-10 6 -10 10 -1 16 6 4 14 27 17 52 3 25 10 61 16 80 9 28 23 145 33 273 1 20
2 20 26 8 10 -6 55 -11 102 -11 113 -2 129 -7 129 -36 0 -13 0 -35 0 -49 0
-27 20 -30 32 -5 6 11 7 10 5 -5 -1 -11 -9 -20 -17 -20 -8 0 -16 -8 -18 -19
-3 -13 0 -16 10 -10 30 19 40 11 13 -10 -16 -13 -25 -28 -21 -34 5 -8 15 -3
32 15 18 20 23 35 21 62 -2 20 0 44 5 53 6 13 5 16 -7 12 -8 -3 -12 -11 -8
-17 3 -6 1 -7 -6 -3 -6 4 -8 12 -5 18 4 6 1 14 -6 18 -9 6 -10 12 -1 26 10 18
10 18 11 -3 0 -27 6 -29 25 -9 8 8 38 18 67 22 73 11 72 11 80 -1 5 -6 8 -5 8
3 0 7 4 10 10 7 5 -3 26 -1 47 4 28 8 39 7 46 -2 6 -9 7 -8 4 3 -2 10 -19 16
-52 17 -26 1 -58 9 -71 18 -30 19 -67 19 -107 -1 -17 -9 -85 -23 -151 -31
l-119 -14 -34 33 c-18 17 -34 28 -34 22z m-164 -124 c-3 -4 -14 -10 -25 -13
-23 -6 -39 11 -20 23 15 9 52 1 45 -10z m15 -30 c0 -5 -2 -10 -4 -10 -3 0 -8
5 -11 10 -3 6 -1 10 4 10 6 0 11 -4 11 -10z m80 -10 c0 -5 -4 -10 -10 -10 -5
0 -10 5 -10 10 0 6 5 10 10 10 6 0 10 -4 10 -10z m-105 -10 c-3 -5 -10 -10
-16 -10 -5 0 -9 5 -9 10 0 6 7 10 16 10 8 0 12 -4 9 -10z m64 -252 c1 6 5 12
11 12 5 0 7 -6 4 -14 -4 -10 -18 -13 -46 -10 -23 2 -46 0 -52 -5 -6 -4 -23
-11 -37 -14 -23 -6 -26 -4 -26 18 0 28 14 34 24 10 5 -14 8 -14 28 -1 32 21
79 24 87 6 4 -10 7 -10 7 -2z m27 -214 c-4 -9 -9 -15 -11 -12 -3 3 -3 13 1 22
4 9 9 15 11 12 3 -3 3 -13 -1 -22z m-562 -190 c17 -7 22 -34 6 -34 -5 0 -10
-6 -10 -14 0 -20 -26 -27 -55 -16 -30 11 -33 30 -5 30 10 0 24 9 30 20 12 22
12 22 34 14z"/>
<path d="M8705 3211 c-11 -4 -39 -6 -61 -3 -36 4 -43 1 -49 -17 -5 -17 -14
-21 -46 -21 l-39 0 2 -182 c3 -168 4 -183 21 -180 28 5 23 -46 -7 -58 -22 -8
-24 -15 -29 -97 -3 -48 -5 -138 -6 -198 0 -61 -3 -118 -7 -128 -3 -9 1 -32 9
-50 12 -24 16 -71 16 -197 1 -172 3 -210 9 -210 2 0 13 5 25 11 21 10 21 10 3
-5 -11 -9 -23 -16 -28 -16 -9 0 -5 -76 5 -86 11 -11 8 -44 -3 -44 -5 0 -10
-21 -10 -46 0 -29 4 -43 11 -39 6 4 13 -2 16 -13 3 -15 16 -23 45 -27 28 -5
38 -11 34 -21 -3 -8 1 -14 10 -14 8 0 12 -5 9 -10 -4 -6 -13 -7 -23 -1 -29 14
-72 -12 -72 -43 0 -9 -4 -16 -10 -16 -28 0 0 -99 30 -107 19 -5 24 -14 21 -40
-1 -7 5 -13 14 -13 8 0 15 -5 15 -11 0 -5 5 -7 12 -3 8 5 9 -5 5 -34 -3 -23
-1 -45 4 -48 17 -10 9 -36 -12 -41 -13 -4 -17 -8 -9 -13 8 -5 7 -9 -5 -13 -9
-4 -13 -3 -10 2 22 36 -58 0 -83 -37 -13 -20 -13 -22 2 -16 11 4 16 2 14 -7
-4 -17 -70 -39 -83 -27 -15 13 -25 9 -19 -7 4 -8 1 -15 -5 -15 -20 0 -12 -37
9 -43 11 -3 18 -1 14 4 -12 20 18 8 40 -16 13 -14 30 -25 37 -26 8 -1 3 -4
-11 -8 -29 -8 -36 -38 -25 -108 6 -39 25 -62 25 -29 0 8 6 16 14 19 7 3 15 16
18 30 4 20 1 24 -16 20 -20 -3 -21 -3 -1 6 29 14 46 13 43 -2 -3 -18 21 -57
36 -57 8 0 16 -7 20 -15 7 -18 -15 -20 -32 -3 -9 9 -12 9 -12 -3 0 -8 5 -20
11 -26 8 -8 6 -11 -6 -10 -12 1 -21 -8 -26 -27 -8 -28 -7 -28 24 -20 18 4 61
8 97 8 36 1 71 5 78 9 15 10 16 51 2 78 -7 13 -7 19 0 19 5 0 10 7 10 16 0 12
-7 15 -25 12 -27 -6 -31 1 -15 20 5 7 2 5 -7 -3 -14 -13 -15 -19 -6 -35 10
-16 10 -19 -5 -18 -9 0 -25 -3 -34 -7 -12 -5 -18 -3 -18 6 0 7 -3 9 -6 6 -4
-3 -15 -2 -25 4 -14 7 -17 17 -13 33 3 14 -1 27 -11 36 -11 9 -12 15 -5 20 6
4 14 26 17 49 3 22 10 41 14 41 5 0 9 -4 9 -10 0 -5 6 -10 14 -10 8 0 16 -5
18 -12 3 -7 13 -5 31 7 15 9 27 14 27 10 0 -3 6 0 14 7 17 17 27 113 12 128
-7 7 -7 10 1 10 6 0 11 17 11 38 -1 37 5 91 17 165 6 30 4 37 -9 37 -9 0 -16
3 -17 8 -3 28 -9 46 -19 52 -6 4 -10 11 -9 16 1 5 1 23 0 39 -1 23 -3 27 -11
15 -6 -10 -10 -11 -10 -2 0 6 -11 12 -24 12 -14 0 -28 5 -32 11 -8 14 14 29
43 29 22 0 83 64 83 87 0 6 -14 33 -31 58 -27 39 -29 48 -17 62 11 14 10 16
-8 11 -16 -4 -25 1 -35 18 -7 13 -17 24 -23 24 -5 0 0 9 12 20 23 22 42 26 42
10 0 -5 7 -10 15 -10 9 0 15 9 15 21 0 12 8 23 20 26 11 3 20 9 20 14 0 4 16
13 35 20 19 7 35 19 35 27 0 7 3 12 8 10 4 -2 24 -12 45 -21 20 -10 37 -22 37
-29 0 -6 8 -17 18 -24 10 -9 13 -17 7 -21 -12 -9 -16 -25 -15 -56 1 -12 0 -53
0 -91 -1 -42 3 -72 10 -76 6 -4 18 -25 25 -46 8 -21 14 -33 15 -26 0 10 5 10
20 2 11 -6 26 -8 32 -4 7 4 8 3 4 -4 -3 -6 2 -16 13 -22 13 -6 18 -18 16 -31
-6 -30 -11 -33 -26 -16 -16 16 -54 5 -76 -22 -8 -9 -13 -10 -13 -3 0 7 -4 12
-9 12 -13 0 -21 -106 -10 -144 7 -24 17 -36 35 -40 l26 -7 -25 -23 c-14 -13
-24 -26 -21 -29 2 -2 5 -42 5 -88 1 -111 8 -160 22 -158 7 1 21 1 32 0 19 -2
19 -2 2 -15 -16 -13 -16 -14 7 -18 14 -3 27 0 29 5 2 6 12 11 23 12 38 4 49
10 61 35 l12 25 6 -22 c6 -18 11 -21 26 -12 15 8 19 6 19 -8 0 -15 2 -16 10
-3 8 13 10 12 10 -2 0 -10 5 -18 11 -18 5 0 8 4 4 9 -3 5 -1 12 5 16 19 12 -8
95 -31 95 -6 0 -19 -5 -29 -10 -13 -7 -21 -7 -25 0 -3 5 -1 10 4 10 6 0 11 10
11 23 0 14 3 18 8 10 4 -7 12 -9 18 -5 14 9 24 62 13 62 -5 0 -9 -6 -9 -14 0
-13 -48 -29 -62 -20 -4 3 1 15 12 26 11 12 17 24 14 27 -4 3 -9 0 -11 -6 -3
-7 -9 -13 -14 -13 -4 0 -6 6 -3 14 4 11 0 13 -16 9 -20 -5 -21 -3 -16 18 7 23
6 23 -8 5 -9 -11 -16 -23 -16 -28 0 -4 -5 -8 -11 -8 -8 0 -8 4 1 15 6 8 9 19
5 25 -3 5 1 13 9 16 9 3 16 13 16 20 0 12 3 12 13 2 8 -7 12 -22 10 -33 -3
-20 -3 -20 6 0 5 11 10 31 10 44 1 23 2 23 19 8 20 -19 34 -13 25 9 -4 12 1
14 26 9 22 -4 31 -1 31 8 0 15 -46 21 -55 7 -7 -11 -35 -2 -35 11 0 5 7 9 15
9 9 0 18 12 22 30 5 28 23 43 23 19 0 -6 7 -4 15 5 20 19 19 21 -10 22 -14 1
-25 -2 -25 -7 0 -5 -9 -9 -20 -9 -17 0 -18 3 -8 25 7 15 17 24 25 21 17 -7 16
-1 -3 19 -15 14 -17 14 -30 -2 -7 -10 -14 -13 -14 -6 0 6 4 14 9 18 6 3 7 28
4 58 -6 50 -5 51 12 37 10 -8 16 -9 11 -3 -10 18 12 53 34 53 11 0 20 -4 20
-10 0 -5 5 -10 10 -10 23 0 8 30 -25 50 -19 12 -35 28 -35 35 0 7 -6 15 -12
18 -10 3 -8 10 6 25 22 25 36 21 29 -8 -4 -14 0 -20 13 -20 9 0 14 3 11 7 -4
3 -3 11 2 17 5 6 7 23 4 38 -4 21 -12 29 -37 33 -28 6 -32 10 -30 35 2 33 12
52 23 45 13 -7 31 43 31 86 0 47 -14 79 -35 79 -9 0 -15 9 -15 21 0 12 -8 23
-19 26 -10 2 -24 16 -30 29 -6 14 -16 22 -21 19 -6 -3 -10 -1 -10 4 0 18 -24
12 -38 -9 -7 -11 -18 -20 -25 -20 -7 0 -20 -12 -29 -27 -13 -21 -18 -23 -18
-10 0 9 -7 17 -15 17 -9 0 -18 12 -21 29 -4 17 -12 32 -20 35 -17 7 -44 -3
-44 -15 0 -5 7 -9 15 -9 9 0 15 -9 15 -21 0 -18 -2 -19 -15 -9 -12 10 -15 9
-15 -4 0 -10 -4 -14 -10 -11 -5 3 -10 1 -10 -4 0 -6 -15 -11 -33 -11 -18 0
-38 -5 -45 -12 -6 -6 -25 -13 -42 -14 -24 -2 -30 2 -30 17 0 14 -7 19 -26 19
-69 0 -88 55 -28 82 29 13 36 14 41 3 2 -8 18 -17 35 -20 24 -6 29 -11 25 -27
-7 -24 2 -50 14 -42 14 8 11 74 -4 74 -8 0 -11 12 -10 38 3 31 3 82 2 195 0 9
-5 17 -11 17 -7 0 -7 4 0 13 14 16 31 198 21 217 -7 12 -8 12 -9 1 0 -8 -2
-12 -5 -10 -2 3 -1 19 4 35 6 20 4 43 -5 69 -8 26 -10 44 -3 56 5 10 8 22 7
26 -1 4 1 28 5 52 l8 44 37 -7 c20 -3 45 -6 55 -6 9 0 17 -7 17 -15 0 -8 6
-15 14 -15 8 0 16 7 20 15 10 26 26 16 27 -17 1 -44 12 -79 24 -81 13 -3 14
-50 1 -59 -8 -6 -8 -10 0 -15 6 -5 10 -19 9 -33 -13 -129 -5 -170 32 -170 18
0 23 -4 20 -14 -3 -8 1 -17 9 -20 8 -3 17 0 20 7 6 17 104 18 104 0 0 -19 13
-16 27 6 9 14 23 18 68 17 56 -1 84 12 70 34 -3 5 -17 10 -30 10 -13 0 -27 5
-31 11 -3 6 -15 9 -25 6 -20 -5 -23 5 -19 70 2 44 -7 58 -28 41 -13 -11 -15
-10 -10 13 6 31 -18 51 -51 42 -16 -4 -21 -1 -21 15 0 26 40 56 54 42 17 -17
26 -11 26 15 0 14 7 28 15 31 16 6 21 44 7 44 -5 0 -13 17 -18 38 l-9 37 -23
-23 c-25 -25 -42 -22 -42 7 0 23 -32 32 -82 24 -45 -7 -46 -3 -13 33 30 32 34
55 4 28 -17 -15 -22 -16 -29 -4 -4 7 -4 24 1 37 26 70 -17 93 -176 93 -98 0
-105 1 -105 20 0 22 -4 23 -35 11z m-72 -38 c-7 -2 -19 -2 -25 0 -7 3 -2 5 12
5 14 0 19 -2 13 -5z m574 -269 c-3 -3 -12 -4 -19 -1 -8 3 -5 6 6 6 11 1 17 -2
13 -5z m-83 -98 c-6 -16 -24 -23 -24 -8 0 10 22 33 27 28 2 -2 1 -11 -3 -20z
m-70 -17 c-3 -5 -15 -9 -27 -8 -12 0 -16 3 -9 6 6 2 12 12 12 20 0 13 3 13 15
3 8 -7 12 -16 9 -21z m-286 -176 c-2 -9 -8 -18 -15 -20 -7 -3 -9 3 -6 16 6 25
26 28 21 4z m-41 -235 c-3 -8 -6 -5 -6 6 -1 11 2 17 5 13 3 -3 4 -12 1 -19z
m340 -454 c-3 -3 -12 -4 -19 -1 -8 3 -5 6 6 6 11 1 17 -2 13 -5z m143 -259 c0
-15 -21 -12 -30 5 -11 20 -10 21 9 10 12 -6 21 -13 21 -15z m-45 -205 c-3 -5
-13 -10 -21 -10 -8 0 -12 5 -9 10 3 6 13 10 21 10 8 0 12 -4 9 -10z m-549 -55
c-5 -21 -3 -25 14 -25 17 0 18 -3 8 -19 -6 -10 -17 -17 -24 -14 -16 6 -24 66
-10 75 17 12 19 10 12 -17z m457 -112 c-3 -7 -9 -13 -14 -13 -5 0 -9 -7 -9
-15 0 -13 -3 -13 -26 1 -25 17 -25 18 -5 29 29 15 60 14 54 -2z m-8 -83 c-3
-5 -11 -10 -16 -10 -6 0 -7 5 -4 10 3 6 11 10 16 10 6 0 7 -4 4 -10z m-475
-90 c0 -5 -5 -10 -11 -10 -7 0 -18 -8 -25 -17 -10 -13 -13 -14 -14 -4 0 13 28
40 43 41 4 0 7 -4 7 -10z m85 -70 c-3 -5 -12 -10 -18 -10 -7 0 -6 4 3 10 19
12 23 12 15 0z m-95 -51 c-11 -20 -10 -21 6 -15 17 6 16 5 -1 -16 -11 -13 -22
-25 -24 -28 -2 -3 0 5 3 18 6 16 3 22 -8 22 -12 0 -10 5 7 23 27 28 33 26 17
-4z m7 -81 c-3 -8 -6 -5 -6 6 -1 11 2 17 5 13 3 -3 4 -12 1 -19z"/>
<path d="M6295 3200 c-3 -5 -2 -10 4 -10 5 0 13 5 16 10 3 6 2 10 -4 10 -5 0
-13 -4 -16 -10z"/>
<path d="M7170 3199 c0 -5 5 -7 10 -4 6 3 10 8 10 11 0 2 -4 4 -10 4 -5 0 -10
-5 -10 -11z"/>
<path d="M9005 3200 c3 -5 8 -10 11 -10 2 0 4 5 4 10 0 6 -5 10 -11 10 -5 0
-7 -4 -4 -10z"/>
<path d="M4548 3185 c-26 -7 -52 -16 -58 -20 -14 -9 -13 -62 3 -68 10 -4 10
-7 0 -18 -8 -8 -13 -40 -13 -80 0 -44 -7 -83 -19 -113 -21 -47 -19 -121 3
-113 6 3 10 10 8 16 -4 18 55 13 62 -5 4 -9 4 -19 1 -22 -3 -3 -5 0 -5 6 0 7
-4 12 -10 12 -6 0 -6 -9 -1 -22 16 -45 -7 -62 -42 -30 -19 17 -20 16 -15 -88
3 -58 9 -112 12 -121 4 -9 21 -19 37 -23 17 -3 28 -10 24 -16 -3 -6 -15 -6
-30 0 l-24 9 0 -94 c0 -52 -2 -99 -5 -104 -3 -5 -3 -23 0 -40 5 -23 14 -33 33
-38 35 -8 43 -24 24 -45 -9 -10 -12 -18 -7 -18 8 0 12 -43 5 -58 0 -2 -12 10
-26 25 l-24 28 0 -107 1 -108 34 0 c20 0 34 5 34 13 0 6 5 4 11 -5 5 -10 18
-18 27 -18 9 -1 -5 -10 -32 -20 -27 -11 -53 -18 -59 -17 -5 1 -11 -3 -14 -10
-3 -8 4 -10 22 -7 17 3 24 1 20 -6 -3 -5 -1 -10 5 -10 7 0 10 -6 8 -12 -7 -19
20 -41 42 -35 13 3 17 1 13 -9 -3 -8 -9 -11 -14 -8 -5 3 -9 -4 -9 -16 0 -11
-7 -23 -15 -25 -42 -14 -49 -18 -38 -22 9 -3 9 -10 1 -29 -13 -27 -12 -29 20
-38 18 -6 22 -3 23 16 0 21 1 22 8 3 4 -11 5 -34 0 -53 -5 -21 -3 -37 5 -45 7
-7 16 -24 19 -38 8 -30 -13 -55 -37 -46 -12 5 -14 -2 -13 -29 3 -35 27 -61 46
-50 10 6 25 -24 16 -32 -3 -3 -5 0 -5 6 0 7 -14 12 -30 12 -23 0 -33 6 -42 26
-8 17 -18 24 -30 21 -10 -3 -18 -1 -18 4 0 5 -7 9 -15 9 -12 0 -15 -15 -15
-74 l0 -74 30 -7 c17 -4 28 -11 24 -16 -3 -5 -1 -9 5 -9 5 0 15 8 20 18 7 11
10 12 11 3 0 -9 9 -12 31 -9 24 4 33 1 36 -13 4 -15 8 -16 27 -6 11 7 25 18
29 25 7 10 12 10 22 2 8 -7 19 -9 25 -5 5 3 10 1 10 -5 0 -20 18 -1 25 27 3
15 12 31 18 35 9 6 9 8 0 8 -9 0 -13 16 -13 44 0 25 -5 48 -10 51 -8 5 -7 11
1 21 15 18 3 87 -14 78 -7 -4 -4 2 6 13 10 12 17 36 17 61 0 22 4 52 10 66 15
41 17 206 2 215 -10 6 -10 10 1 19 10 9 11 27 4 89 -9 79 -4 214 8 245 9 23
47 17 60 -9 8 -16 15 -19 28 -12 9 6 21 8 26 5 16 -10 41 6 41 26 0 14 -6 19
-22 17 -13 -2 -29 0 -36 5 -19 12 -62 15 -62 4 0 -5 -7 -8 -16 -6 -17 3 -36
58 -53 153 -6 36 -5 57 4 75 12 23 32 135 27 153 -5 17 -2 195 3 256 5 47 3
66 -7 72 -10 7 -10 9 0 9 19 0 14 34 -9 59 -16 17 -20 32 -17 61 l3 38 -57 16
c-66 18 -75 18 -140 1z m132 -95 c0 -5 -4 -10 -10 -10 -5 0 -10 5 -10 10 0 6
5 10 10 10 6 0 10 -4 10 -10z m-124 -47 c-11 -11 -17 4 -9 23 7 18 8 18 11 1
2 -10 1 -21 -2 -24z m164 -553 c0 -11 -11 -22 -30 -28 -39 -14 -45 -1 -15 32
27 29 45 27 45 -4z m-195 -40 c3 -5 1 -10 -4 -10 -6 0 -11 5 -11 10 0 6 2 10
4 10 3 0 8 -4 11 -10z m209 -255 c-6 -16 -24 -21 -24 -7 0 11 11 22 21 22 5 0
6 -7 3 -15z m-20 -70 c3 -8 1 -15 -4 -15 -6 0 -10 7 -10 15 0 8 2 15 4 15 2 0
6 -7 10 -15z m-118 -244 c14 -1 14 -34 1 -43 -16 -10 -53 11 -54 31 -1 12 5
17 20 15 12 -1 27 -3 33 -3z m79 -463 c-19 -11 -30 -5 -21 11 4 6 14 7 22 4
15 -5 14 -7 -1 -15z m-172 -38 c-4 -16 0 -20 21 -20 31 0 35 -15 6 -23 -11 -3
-20 -1 -20 5 0 5 -4 7 -9 3 -15 -8 -20 8 -10 33 10 27 19 29 12 2z m88 -52
c-11 -10 -13 -10 -7 0 4 6 2 12 -4 12 -6 0 -8 5 -4 11 4 8 9 8 17 0 8 -8 7
-14 -2 -23z"/>
<path d="M3490 3168 c-81 -17 -100 -18 -133 -7 -37 12 -47 10 -139 -21 l-99
-35 -33 -76 c-22 -52 -31 -87 -28 -108 3 -22 0 -33 -12 -37 -9 -3 -16 -11 -16
-16 0 -6 7 -8 15 -4 12 4 15 -4 15 -40 0 -28 -4 -43 -10 -39 -5 3 -10 -1 -10
-9 0 -9 -5 -16 -10 -16 -6 0 -9 5 -8 11 2 6 -7 13 -20 15 -21 4 -22 3 -8 -12
18 -18 20 -33 6 -54 -9 -13 -11 -13 -21 0 -8 11 -12 12 -16 3 -2 -7 -12 -13
-21 -13 -15 1 -15 2 1 11 21 12 22 35 1 43 -20 8 -39 8 -32 0 3 -3 -3 -27 -13
-55 -17 -43 -17 -49 -3 -49 9 0 13 5 9 13 -4 6 0 4 8 -5 8 -10 19 -18 26 -18
6 0 11 -4 11 -10 0 -5 4 -10 9 -10 6 0 6 12 -1 31 -13 39 -2 51 12 13 8 -20
13 -25 19 -15 7 11 10 11 17 0 13 -21 13 -31 15 -229 1 -102 5 -193 10 -202 7
-14 20 -16 78 -12 41 3 72 1 75 -5 4 -6 12 -8 19 -6 27 10 94 12 144 6 35 -5
62 -3 83 6 20 8 38 9 48 4 10 -4 22 -7 28 -4 6 2 9 -17 8 -54 -1 -32 1 -62 6
-68 12 -15 4 -64 -14 -84 -17 -19 -21 -77 -7 -99 7 -11 9 -11 14 1 6 15 30 17
43 5 3 -4 12 -4 19 -2 17 7 28 -25 14 -42 -6 -7 -8 -18 -4 -24 3 -5 -1 -10
-10 -10 -9 0 -13 5 -10 10 4 6 -6 10 -23 10 -39 0 -44 -17 -32 -93 5 -34 9
-89 8 -122 0 -33 2 -71 6 -83 9 -27 30 -18 23 9 -3 10 -1 22 4 25 5 3 9 -8 9
-23 0 -16 6 -35 12 -41 10 -10 10 -15 -2 -22 -8 -5 -18 -6 -22 -4 -5 3 -8 -21
-7 -53 1 -32 -2 -79 -6 -105 -7 -44 -6 -48 13 -48 11 0 32 4 46 10 21 8 24 7
19 -6 -5 -15 -3 -15 24 -1 17 9 40 13 53 10 15 -4 21 -2 17 4 -5 7 6 10 31 7
20 -2 43 0 49 4 17 10 30 122 14 122 -6 0 -11 -4 -11 -9 0 -5 -9 -13 -20 -16
-11 -3 -20 -13 -20 -20 0 -9 6 -12 15 -9 10 4 15 0 15 -11 0 -13 -6 -16 -22
-11 -13 3 -26 6 -30 6 -5 0 -7 18 -6 40 2 46 -15 70 -45 65 -12 -3 -33 4 -47
15 -20 15 -23 21 -12 32 8 8 15 9 20 3 12 -16 32 -16 26 0 -4 8 -1 15 4 15 19
0 24 -20 10 -37 -10 -13 -10 -15 0 -9 7 4 20 2 28 -5 12 -10 15 -10 12 1 -2 7
3 15 10 17 6 3 12 -1 12 -7 0 -7 7 -5 16 5 9 9 14 19 10 22 -3 4 -6 3 -6 -2 0
-4 -12 5 -26 20 -23 25 -27 27 -36 12 -5 -10 -14 -15 -19 -11 -5 3 -16 0 -24
-6 -12 -10 -16 -9 -21 3 -3 8 -15 17 -26 20 -24 7 -17 22 12 30 15 4 23 0 29
-14 7 -19 8 -19 21 5 14 27 34 34 45 16 4 -6 11 -7 17 -4 7 5 9 1 5 -9 -3 -9
-1 -19 6 -23 7 -4 9 -3 4 1 -8 10 21 45 38 45 8 0 10 10 7 25 -6 34 -22 42
-29 16 -6 -24 -30 -27 -56 -7 -16 13 -17 17 -6 38 l14 23 3 -22 c2 -15 10 -23
23 -23 24 0 25 27 2 33 -10 3 1 5 24 6 36 1 40 3 36 21 -6 23 -31 27 -39 5 -9
-23 -26 -6 -18 18 4 12 6 49 5 84 -1 50 2 64 16 71 16 9 18 31 20 209 2 109 3
205 4 213 1 8 1 34 1 58 -2 38 -4 43 -21 37 -22 -7 -38 10 -17 18 8 3 14 15
13 26 -1 16 -6 20 -22 15 -18 -6 -17 -4 4 15 13 11 28 21 33 21 4 0 8 45 8
100 0 60 -4 100 -10 100 -5 0 -10 5 -10 11 0 5 5 7 10 4 6 -4 10 34 10 105 0
97 -3 116 -21 141 -11 16 -28 52 -37 81 -15 46 -21 53 -58 65 -26 9 -45 23
-52 38 -13 29 -7 29 -132 3z m30 -318 c5 -37 2 -65 -6 -87 -15 -35 -10 -153 7
-186 12 -22 12 -144 1 -197 -7 -32 -11 -35 -44 -35 -20 0 -34 3 -32 6 4 8 -21
19 -42 19 -8 0 -14 -7 -14 -15 0 -8 -5 -15 -11 -15 -5 0 -7 5 -3 12 5 8 2 9
-12 4 -33 -13 -38 -12 -49 12 -10 22 -25 30 -25 12 0 -5 -7 -7 -15 -4 -13 5
-20 -6 -16 -28 0 -4 -5 -5 -13 -2 -8 3 -17 21 -20 39 -6 32 -9 34 -32 25 -29
-11 -50 -13 -41 -3 4 3 -1 11 -9 18 -23 16 -10 75 17 75 10 0 19 -4 19 -10 0
-5 5 -10 10 -10 6 0 10 7 10 15 0 9 10 14 28 14 56 0 77 7 90 29 14 25 18 191
5 201 -4 3 -9 11 -10 16 -5 32 -5 44 -4 83 1 31 6 44 19 48 9 3 25 10 35 15
13 7 23 6 33 -2 20 -16 41 -5 66 37 l21 36 15 -34 c8 -18 18 -58 22 -88z m116
-54 c3 -8 13 -12 23 -9 19 5 71 -36 71 -54 0 -6 -9 -13 -21 -16 -15 -4 -19 -2
-15 8 3 9 0 12 -10 8 -7 -3 -14 0 -14 7 0 6 -4 9 -9 6 -15 -10 -42 6 -37 21 3
8 2 12 -3 9 -5 -3 -14 0 -20 8 -9 11 -9 15 1 19 22 9 28 8 34 -7z m119 -56 c3
-5 1 -10 -4 -10 -6 0 -11 5 -11 10 0 6 2 10 4 10 3 0 8 -4 11 -10z m-205 -12
c0 -4 -4 -8 -9 -8 -6 0 -12 4 -15 8 -3 5 1 9 9 9 8 0 15 -4 15 -9z m-450 -258
c0 -46 -22 -63 -47 -37 -14 13 -13 16 6 22 12 3 19 11 15 16 -3 5 -11 6 -17 2
-8 -5 -8 -2 0 9 7 8 10 18 6 21 -3 4 3 7 15 7 19 0 22 -6 22 -40z m667 -522
c-3 -8 -6 -5 -6 6 -1 11 2 17 5 13 3 -3 4 -12 1 -19z"/>
<path d="M8400 3181 c0 -6 8 -10 18 -10 9 0 31 -3 47 -6 30 -6 30 -6 -4 10
-38 17 -61 19 -61 6z"/>
<path d="M9030 3180 c0 -5 5 -10 10 -10 6 0 10 5 10 10 0 6 -4 10 -10 10 -5 0
-10 -4 -10 -10z"/>
<path d="M7055 3170 c-3 -5 -1 -10 4 -10 6 0 11 5 11 10 0 6 -2 10 -4 10 -3 0
-8 -4 -11 -10z"/>
<path d="M7385 3162 c-6 -5 -29 -17 -53 -27 -41 -17 -43 -17 -62 0 -26 23 -33
15 -58 -60 -16 -51 -22 -60 -41 -57 -19 3 -21 -1 -21 -47 0 -39 -4 -51 -15
-51 -12 0 -15 -13 -15 -61 0 -60 0 -61 25 -55 16 4 25 2 25 -5 0 -8 4 -8 13
-2 6 5 22 10 35 11 31 1 30 -34 -2 -40 -19 -4 -23 -1 -18 11 5 14 3 14 -21 -1
-25 -17 -27 -17 -37 0 -11 16 -11 16 -6 0 3 -10 2 -18 -3 -18 -11 0 -25 -209
-16 -232 10 -25 61 -24 75 2 11 20 11 20 31 1 19 -18 22 -18 39 -3 19 16 26
18 92 26 26 3 38 0 42 -11 4 -8 11 -11 18 -6 7 4 18 8 25 9 7 1 26 9 44 18 17
9 36 13 42 9 6 -4 8 0 4 10 -6 17 18 31 35 21 6 -4 15 0 20 7 7 10 8 6 4 -14
-5 -23 -2 -29 18 -37 18 -7 23 -14 19 -29 -3 -13 -1 -21 7 -21 7 0 10 -7 6
-15 -3 -8 -1 -15 4 -15 6 0 10 -7 10 -15 0 -8 5 -15 11 -15 7 0 8 7 4 18 -21
50 -19 57 9 27 27 -30 27 -30 23 -5 -3 14 -9 35 -12 48 -6 16 -3 22 8 22 9 0
20 7 25 16 8 15 13 14 52 -7 l42 -24 -7 -74 c-6 -65 -5 -73 9 -68 20 8 21 -7
0 -27 -19 -19 -38 -136 -30 -181 5 -27 12 -34 36 -37 38 -6 40 -3 40 46 1 23
7 52 15 66 19 32 19 44 0 36 -8 -3 -15 -1 -15 4 0 6 5 10 10 10 14 0 0 81 -17
98 -16 16 -16 25 -2 39 8 8 7 17 -3 32 -11 20 -11 24 7 37 17 13 20 28 22 107
1 51 0 85 -3 76 -6 -19 -41 -32 -49 -19 -6 9 -111 1 -135 -10 -22 -11 -40 -1
-33 18 5 14 3 15 -7 5 -11 -10 -10 -16 5 -33 10 -11 25 -18 33 -15 8 3 12 0 9
-7 -2 -7 -10 -12 -16 -10 -6 1 -11 -2 -11 -6 0 -8 -43 -32 -55 -32 -2 0 -2 6
1 14 3 8 -3 24 -13 35 -19 23 -39 29 -27 9 5 -10 4 -10 -6 -1 -11 10 -11 15 0
28 11 13 8 15 -19 15 -17 0 -31 -4 -31 -10 0 -5 -5 -10 -11 -10 -5 0 -7 5 -4
10 4 6 -5 10 -22 8 -16 -1 -34 1 -40 5 -6 4 -13 0 -17 -8 -8 -21 -34 -19 -32
3 1 14 -6 16 -36 14 -40 -3 -48 7 -23 28 8 7 15 18 14 24 0 7 -2 6 -6 -2 -2
-6 -9 -10 -14 -6 -5 3 -9 -1 -9 -8 0 -10 -3 -9 -10 2 -6 10 -4 20 6 31 8 8 12
18 9 21 -3 3 13 8 35 12 48 7 60 30 60 107 0 27 5 49 10 49 6 0 10 -7 10 -15
0 -18 37 -38 57 -31 9 4 22 1 29 -5 11 -9 15 -3 20 30 4 23 10 43 14 46 4 2
15 -23 24 -57 l17 -61 28 32 c31 34 84 43 95 16 6 -17 32 -20 41 -6 3 6 8 30
10 55 5 50 -9 61 -39 30 -9 -8 -16 -11 -16 -5 0 6 -8 11 -17 11 -24 0 -55 54
-40 69 8 8 1 8 -24 1 -18 -6 -35 -10 -36 -10 -2 0 -3 8 -3 18 0 25 19 42 47
42 13 0 23 5 23 11 0 6 -8 9 -18 7 -10 -3 -27 1 -37 8 -21 16 -214 20 -230 6z
m105 -22 c0 -5 -4 -10 -9 -10 -6 0 -13 5 -16 10 -3 6 1 10 9 10 9 0 16 -4 16
-10z m96 -106 c-7 -18 -20 -18 -36 1 -7 8 -23 15 -36 15 -33 0 -20 28 14 32
31 3 66 -26 58 -48z m74 6 c0 -5 -4 -10 -10 -10 -5 0 -10 5 -10 10 0 6 5 10
10 10 6 0 10 -4 10 -10z m-4 -66 c-3 -8 -9 -14 -15 -14 -14 0 -22 43 -8 52 14
9 31 -18 23 -38z m-163 -333 c18 -6 18 -8 -2 -31 -14 -17 -19 -19 -15 -7 4 12
1 17 -12 18 -13 0 -14 2 -5 6 11 5 11 7 0 14 -12 7 -11 9 1 8 8 0 23 -4 33 -8z
m-73 -81 c0 -5 -6 -12 -12 -16 -7 -4 -10 -4 -6 1 4 4 3 14 -4 22 -8 11 -7 12
6 7 9 -3 16 -10 16 -14z m425 -10 c3 -5 1 -10 -4 -10 -6 0 -11 5 -11 10 0 6 2
10 4 10 3 0 8 -4 11 -10z m-675 -15 c0 -9 -6 -12 -16 -8 -13 5 -13 7 -2 14 17
11 18 11 18 -6z"/>
<path d="M7690 3160 c-13 -8 -13 -10 2 -10 9 0 19 -6 22 -12 5 -10 7 -10 12 0
7 15 104 17 104 1 0 -8 5 -8 15 1 8 7 15 16 15 20 0 11 -153 12 -170 0z"/>
<path d="M6190 3089 c0 -5 5 -7 10 -4 6 3 10 8 10 11 0 2 -4 4 -10 4 -5 0 -10
-5 -10 -11z"/>
<path d="M5915 3048 c-22 -5 -48 -7 -58 -4 -9 2 -15 0 -11 -5 3 -5 1 -9 -5 -9
-5 0 -8 -22 -6 -50 1 -27 0 -51 -4 -51 -37 -9 -77 -5 -90 9 -15 14 -16 11 -19
-42 -3 -57 10 -92 30 -79 20 12 177 10 182 -2 2 -7 17 -10 35 -7 36 5 39 22
16 98 -8 27 -15 67 -15 89 0 56 -8 63 -55 53z m-5 -112 c0 -2 -7 -7 -16 -10
-8 -3 -12 -2 -9 4 6 10 25 14 25 6z"/>
<path d="M5714 3015 c-3 -14 -4 -32 0 -40 5 -13 9 -13 28 -3 52 30 56 68 7 68
-22 0 -30 -6 -35 -25z"/>
<path d="M7835 3021 c-3 -6 1 -11 9 -11 9 0 16 -6 16 -14 0 -8 4 -17 9 -21 5
-3 8 7 7 22 -3 28 -29 43 -41 24z"/>
<path d="M6734 2964 c3 -8 2 -13 -3 -9 -5 3 -16 -2 -25 -11 -9 -8 -19 -13 -24
-10 -4 2 -8 -4 -8 -14 0 -10 6 -16 13 -13 8 3 13 -3 13 -17 0 -13 5 -20 13
-17 6 2 11 10 10 16 -2 6 4 11 12 11 8 0 15 7 15 16 0 14 -3 14 -15 4 -8 -7
-15 -8 -15 -2 0 5 7 15 15 22 17 15 20 40 4 40 -6 0 -8 -7 -5 -16z"/>
<path d="M3825 2936 l-20 -23 24 -11 c28 -14 81 -16 81 -4 0 4 -15 6 -34 4
-24 -3 -35 1 -40 13 -4 12 0 18 14 22 11 3 17 9 14 14 -8 14 -17 11 -39 -15z"/>
<path d="M3885 2940 c-3 -5 -1 -10 4 -10 6 0 11 5 11 10 0 6 -2 10 -4 10 -3 0
-8 -4 -11 -10z"/>
<path d="M4360 2930 c0 -5 5 -10 10 -10 6 0 10 5 10 10 0 6 -4 10 -10 10 -5 0
-10 -4 -10 -10z"/>
<path d="M3944 2899 c-13 -21 12 -29 29 -9 16 19 16 20 -3 20 -10 0 -22 -5
-26 -11z"/>
<path d="M8360 2900 c-22 -6 -23 -8 -7 -15 11 -4 23 -3 30 4 15 15 7 19 -23
11z"/>
<path d="M2680 2875 c0 -8 4 -15 10 -15 5 0 7 7 4 15 -4 8 -8 15 -10 15 -2 0
-4 -7 -4 -15z"/>
<path d="M6740 2874 c0 -8 5 -12 10 -9 6 3 10 10 10 16 0 5 -4 9 -10 9 -5 0
-10 -7 -10 -16z"/>
<path d="M2995 2870 c3 -5 8 -10 11 -10 2 0 4 5 4 10 0 6 -5 10 -11 10 -5 0
-7 -4 -4 -10z"/>
<path d="M2980 2855 c-2 -5 -4 -14 -4 -20 -1 -5 -7 -20 -14 -32 -8 -14 -9 -24
-2 -28 5 -3 10 2 10 12 0 11 5 24 11 30 6 6 9 19 6 29 -3 11 -6 15 -7 9z"/>
<path d="M2480 2820 c0 -5 5 -10 11 -10 5 0 7 5 4 10 -3 6 -8 10 -11 10 -2 0
-4 -4 -4 -10z"/>
<path d="M2430 2793 c0 -16 39 -60 40 -45 0 7 -9 22 -20 34 -11 12 -20 17 -20
11z"/>
<path d="M5979 2773 c-1 -10 -1 -20 -1 -23 0 -3 -19 -5 -42 -6 -63 -1 -99 -12
-92 -29 3 -8 1 -27 -3 -43 -8 -27 -7 -29 13 -25 19 4 19 3 3 -7 -25 -16 -103
-18 -119 -2 -10 10 -7 17 20 38 57 45 33 77 -39 54 -37 -13 -39 -15 -41 -59
-5 -117 12 -169 49 -156 7 2 27 -2 45 -9 18 -7 39 -11 46 -9 8 3 10 -1 6 -11
-7 -19 7 -21 24 -4 7 7 12 9 12 4 0 -4 7 0 16 9 9 9 26 15 38 14 43 -3 56 1
56 19 0 10 5 23 10 28 15 15 26 234 12 234 -7 0 -13 -8 -13 -17z"/>
<path d="M6412 2760 c0 -14 2 -19 5 -12 2 6 2 18 0 25 -3 6 -5 1 -5 -13z"/>
<path d="M2980 2749 c0 -5 5 -7 10 -4 6 3 10 8 10 11 0 2 -4 4 -10 4 -5 0 -10
-5 -10 -11z"/>
<path d="M2460 2721 c0 -5 6 -12 13 -14 8 -4 4 -12 -12 -25 -27 -22 -14 -39
14 -18 13 9 16 20 11 39 -6 25 -26 38 -26 18z"/>
<path d="M2502 2710 c0 -14 2 -19 5 -12 2 6 2 18 0 25 -3 6 -5 1 -5 -13z"/>
<path d="M2770 2720 c0 -5 5 -10 10 -10 6 0 10 5 10 10 0 6 -4 10 -10 10 -5 0
-10 -4 -10 -10z"/>
<path d="M7406 2718 c3 -4 11 -5 19 -1 21 7 19 12 -4 10 -11 0 -18 -5 -15 -9z"/>
<path d="M2853 2706 c0 -8 8 -11 20 -8 14 4 16 7 5 13 -19 12 -25 11 -25 -5z"/>
<path d="M2836 2665 c4 -8 10 -12 15 -9 14 8 10 24 -6 24 -9 0 -12 -6 -9 -15z"/>
<path d="M2467 2643 c-4 -3 -7 -19 -7 -34 0 -15 -6 -29 -14 -32 -16 -6 -21
-97 -6 -97 6 0 10 5 10 11 0 5 5 7 11 4 7 -5 5 -13 -5 -24 -21 -23 -20 -30 2
-26 9 2 23 4 30 4 10 1 12 10 7 31 -4 17 -3 29 2 28 4 -2 9 0 11 5 5 17 1 27
-13 27 -11 0 -14 7 -11 23 15 72 15 87 2 87 -7 0 -16 -3 -19 -7z"/>
<path d="M4815 2628 c-24 -14 -45 -40 -39 -50 6 -9 64 1 98 18 16 8 36 14 45
14 9 0 11 3 6 9 -16 16 -88 22 -110 9z"/>
<path d="M4985 2630 c-19 -8 -19 -9 3 -9 12 -1 22 4 22 9 0 6 -1 10 -2 9 -2 0
-12 -4 -23 -9z"/>
<path d="M6560 2625 c-11 -13 -8 -15 24 -15 20 0 36 5 36 11 0 6 -6 9 -14 6
-7 -3 -18 -1 -23 4 -6 6 -14 4 -23 -6z"/>
<path d="M5129 2603 c-13 -15 -11 -16 25 -10 54 9 71 27 24 27 -21 0 -41 -7
-49 -17z"/>
<path d="M6687 2614 c-9 -9 4 -35 14 -28 5 3 9 12 9 20 0 14 -12 19 -23 8z"/>
<path d="M2820 2595 c-14 -7 -28 -11 -32 -9 -3 2 -10 -1 -14 -7 -9 -15 55 -4
70 11 16 16 2 19 -24 5z"/>
<path d="M4376 2594 c-9 -23 -8 -24 14 -24 23 0 26 13 6 29 -11 9 -15 8 -20
-5z"/>
<path d="M9367 2603 c-4 -3 -7 -17 -7 -30 0 -20 3 -23 28 -17 29 7 48 27 32
32 -6 2 -8 8 -4 13 3 5 0 9 -5 9 -6 0 -11 -4 -11 -10 0 -5 -5 -10 -11 -10 -5
0 -7 5 -4 10 7 11 -8 14 -18 3z"/>
<path d="M1480 2588 c0 -14 30 -22 41 -11 7 7 2 12 -15 15 -14 3 -26 1 -26 -4z"/>
<path d="M2237 2555 c-4 -8 -2 -17 4 -20 5 -4 7 -10 4 -15 -3 -5 -1 -11 5 -15
5 -3 10 3 10 14 0 10 3 26 6 35 4 10 1 16 -9 16 -8 0 -17 -7 -20 -15z"/>
<path d="M5556 2555 c-3 -8 -1 -17 3 -20 5 -3 11 2 15 10 3 8 1 17 -3 20 -5 3
-11 -2 -15 -10z"/>
<path d="M6394 2523 c-3 -10 -10 -26 -15 -35 -7 -13 -5 -16 6 -12 9 4 15 0 15
-7 0 -24 20 13 20 38 0 28 -18 40 -26 16z"/>
<path d="M2205 2519 c-4 -6 -5 -13 -2 -16 7 -7 27 6 27 18 0 12 -17 12 -25 -2z"/>
<path d="M9158 2463 c-2 -23 -9 -29 -33 -31 -16 -2 -38 -11 -47 -19 -12 -11
-27 -14 -48 -9 -18 3 -29 2 -25 -3 3 -5 -2 -16 -10 -24 -18 -19 -20 -64 -2
-70 9 -3 9 -9 -1 -26 -16 -28 -9 -40 22 -34 14 3 39 -2 55 -10 28 -14 32 -14
41 1 8 14 9 13 10 -8 0 -18 3 -21 9 -11 5 7 14 10 20 7 6 -4 11 -1 11 8 0 9 6
13 14 10 11 -4 16 8 22 53 3 32 13 67 20 78 8 11 14 27 14 36 0 23 -25 70 -33
62 -4 -3 -13 0 -21 6 -12 10 -15 7 -18 -16z"/>
<path d="M9236 2468 c3 -4 9 -8 15 -8 5 0 9 4 9 8 0 5 -7 9 -15 9 -8 0 -12 -4
-9 -9z"/>
<path d="M5720 2460 c-13 -9 -13 -10 0 -10 8 0 22 5 30 10 13 9 13 10 0 10 -8
0 -22 -5 -30 -10z"/>
<path d="M9035 2429 c-10 -15 3 -25 16 -12 7 7 7 13 1 17 -6 3 -14 1 -17 -5z"/>
<path d="M7290 2420 c-8 -5 -12 -12 -9 -15 4 -3 12 1 19 10 14 17 11 19 -10 5z"/>
<path d="M7315 2399 c-22 -4 -44 -5 -50 -2 -6 2 -20 -5 -30 -17 -18 -20 -41
-28 -30 -10 3 6 1 10 -6 10 -6 0 -9 -8 -6 -20 4 -17 2 -18 -13 -10 -11 6 -22
15 -25 20 -15 24 -25 -5 -19 -53 7 -57 20 -81 40 -73 7 3 24 -4 37 -14 13 -11
27 -16 31 -12 4 4 31 7 59 7 46 0 52 2 55 23 4 23 16 29 27 12 3 -5 16 -10 27
-10 19 0 20 4 16 65 -6 67 -24 100 -49 85 -7 -5 -16 -6 -19 -1 -3 4 -23 4 -45
0z m25 -18 c0 -5 -7 -12 -16 -15 -14 -5 -15 -4 -4 9 14 17 20 19 20 6z"/>
<path d="M5360 2319 c0 -6 -8 -8 -19 -4 -15 4 -19 2 -16 -12 2 -10 4 -20 4
-22 1 -3 6 0 12 6 6 6 17 10 23 9 6 -2 7 -1 3 2 -4 2 -3 10 4 18 8 10 8 14 0
14 -6 0 -11 -5 -11 -11z"/>
<path d="M5469 2315 c-1 -3 -2 -8 -3 -12 -1 -5 -5 -14 -9 -20 -11 -18 1 -16
20 2 8 8 19 13 24 10 5 -4 9 -2 9 3 0 13 -38 29 -41 17z"/>
<path d="M5406 2293 c10 -7 21 -13 26 -13 4 0 8 6 8 13 0 7 -11 13 -26 13 -24
0 -24 -1 -8 -13z"/>
<path d="M4995 2280 c11 -5 27 -9 35 -9 13 -1 13 0 0 9 -8 5 -24 9 -35 9 l-20
0 20 -9z"/>
<path d="M5065 2280 c-2 -3 15 -7 38 -7 24 -1 44 -8 49 -17 5 -9 15 -13 24 -9
9 3 20 0 24 -7 8 -13 30 -5 30 11 0 6 -4 7 -10 4 -5 -3 -10 0 -10 9 0 8 6 16
13 19 6 2 -25 4 -71 3 -46 0 -85 -3 -87 -6z"/>
<path d="M5275 2280 c-3 -6 1 -7 9 -4 18 7 21 14 7 14 -6 0 -13 -4 -16 -10z"/>
<path d="M5610 2180 c0 -13 12 -19 26 -13 21 8 17 22 -6 20 -11 -1 -20 -4 -20
-7z"/>
<path d="M7324 2176 c-10 -8 -16 -17 -13 -20 3 -3 14 3 24 14 21 23 17 26 -11
6z"/>
<path d="M3085 2170 c-3 -5 1 -10 9 -10 9 0 16 5 16 10 0 6 -4 10 -9 10 -6 0
-13 -4 -16 -10z"/>
<path d="M3212 2163 c-15 -3 -22 -10 -18 -19 3 -8 1 -14 -4 -14 -5 0 -7 -7 -4
-15 4 -8 10 -15 15 -15 4 0 6 7 3 15 -4 8 -2 15 3 15 4 0 14 9 21 20 7 11 11
19 10 19 -2 -1 -13 -4 -26 -6z"/>
<path d="M5936 2155 c-6 -16 -51 -16 -87 0 -28 11 -32 -13 -9 -57 11 -22 20
-41 18 -42 -2 -2 -19 -12 -38 -23 -33 -19 -37 -19 -67 -4 l-33 16 31 14 c16 7
28 16 25 19 -3 3 -1 11 6 19 13 16 11 19 -22 28 -48 12 -65 -14 -67 -102 -2
-91 11 -163 33 -180 13 -10 13 -12 -6 -18 -21 -7 -22 -10 -15 -93 9 -112 17
-132 52 -132 26 0 26 -1 7 -15 -10 -8 -14 -15 -7 -15 6 0 19 7 27 16 9 8 16
11 16 5 0 -6 9 -11 19 -11 11 0 23 -5 27 -11 4 -7 -5 -10 -27 -7 -21 2 -34 -2
-37 -11 -3 -9 0 -12 10 -8 11 4 18 -5 26 -29 5 -19 6 -32 1 -28 -15 9 -10 -6
6 -23 19 -19 11 -31 -9 -14 -11 9 -18 7 -34 -14 -19 -24 -40 -36 -27 -15 3 6
1 10 -5 10 -6 0 -3 11 7 24 10 13 21 22 26 19 14 -8 7 26 -9 41 -18 19 -14 19
-53 5 l-31 -11 0 -103 0 -104 39 2 c36 2 40 0 46 -28 4 -16 9 -24 12 -17 2 6
10 12 16 12 6 0 19 8 30 18 15 12 18 13 12 2 -7 -13 -6 -13 7 -2 13 10 17 10
21 0 2 -7 8 -10 12 -6 4 4 2 14 -5 23 -8 10 -9 15 -1 15 6 0 11 13 11 29 0 28
14 41 46 41 8 0 14 -9 14 -20 0 -11 6 -20 14 -20 11 0 14 15 12 68 -4 100 -5
102 -21 102 -16 0 -19 10 -7 26 4 5 3 6 -2 2 -17 -14 -24 -9 -22 16 1 18 4 22
13 14 9 -7 15 2 23 34 16 58 18 81 26 333 l7 220 -26 3 c-15 1 -27 -5 -31 -13z
m9 -266 c10 -15 -1 -23 -20 -15 -9 3 -13 10 -10 16 8 13 22 13 30 -1z m-138
-44 c0 -8 -7 -15 -15 -15 -12 0 -12 3 -2 15 7 8 13 15 15 15 1 0 2 -7 2 -15z
m-13 -96 c-13 -14 -21 -28 -17 -32 3 -4 1 -7 -5 -7 -7 0 -12 4 -12 9 0 5 -10
12 -22 15 l-23 7 22 9 c12 5 29 20 39 35 15 24 17 24 30 8 11 -15 9 -22 -12
-44z m64 -156 c-10 -2 -26 -2 -35 0 -10 3 -2 5 17 5 19 0 27 -2 18 -5z m40
-25 c-2 -6 -14 -15 -26 -19 -16 -6 -20 -5 -15 6 3 8 9 12 14 9 5 -3 9 0 9 5 0
6 5 11 11 11 6 0 9 -5 7 -12z m-94 -143 c-4 -8 -11 -12 -16 -9 -6 4 -5 10 3
15 19 12 19 11 13 -6z m0 -130 c-4 -8 -11 -15 -16 -15 -6 0 -5 6 2 15 7 8 14
15 16 15 2 0 1 -7 -2 -15z"/>
<path d="M6067 2153 c-19 -9 -27 -20 -23 -30 3 -8 6 -23 6 -34 0 -34 38 -4 46
37 3 19 5 37 3 39 -2 2 -17 -3 -32 -12z"/>
<path d="M6233 2137 c-4 -8 -18 -16 -31 -19 -12 -4 -20 -2 -16 3 3 5 0 9 -5 9
-6 0 -11 -13 -11 -28 0 -15 -6 -34 -12 -41 -21 -20 -5 -392 19 -461 11 -29 9
-76 -5 -135 -15 -66 -20 -180 -8 -192 4 -5 16 2 26 15 24 29 28 28 26 -7 -1
-17 1 -28 5 -25 4 2 9 -3 11 -13 3 -15 4 -15 21 1 16 17 17 17 17 -1 0 -20
-44 -45 -65 -37 -8 3 -11 12 -8 19 2 8 2 19 -1 24 -9 14 -36 2 -36 -16 0 -8 5
-11 12 -7 8 5 9 2 3 -12 -12 -27 -10 -77 4 -82 6 -2 11 -10 11 -18 0 -19 35
-18 54 1 22 22 36 18 36 -10 0 -16 6 -25 15 -25 8 0 15 9 15 20 0 28 24 15 37
-20 6 -17 8 -28 3 -25 -10 6 -22 -24 -14 -36 3 -5 15 -9 27 -9 15 0 23 -6 23
-17 1 -10 3 -24 5 -32 3 -10 -6 -15 -33 -16 -21 -1 -46 -9 -55 -17 -19 -16
-24 -17 -83 -21 -27 -1 -34 2 -32 13 2 8 0 12 -4 8 -14 -15 -18 -60 -10 -131
7 -66 15 -87 31 -81 7 3 16 1 19 -4 3 -5 29 -8 58 -5 40 3 58 9 73 27 11 12
26 21 33 19 6 -3 12 2 12 11 0 9 -7 16 -16 16 -9 0 -18 9 -21 20 -4 15 -9 18
-18 10 -9 -8 -15 -8 -20 0 -18 29 38 47 66 19 25 -25 43 -25 30 0 -6 10 -24
25 -41 33 -28 14 -29 16 -14 29 14 11 19 11 33 -7 26 -32 51 -37 52 -11 2 37
-3 71 -12 88 -6 12 -4 21 6 29 21 17 16 217 -5 231 -12 7 -13 11 -2 18 11 7
11 9 -2 14 -12 5 -14 12 -7 29 5 13 12 75 16 138 8 138 12 186 23 265 11 83 4
155 -14 155 -8 0 -26 12 -40 27 -21 23 -27 25 -34 13 -14 -22 -12 -33 5 -26
20 7 19 0 -5 -24 -11 -11 -17 -26 -14 -35 4 -8 1 -15 -6 -15 -6 0 -8 5 -5 10
3 6 -1 10 -9 10 -9 0 -16 4 -16 10 0 5 7 7 15 4 8 -4 15 -1 15 5 0 6 -11 11
-24 11 -13 0 -29 7 -36 15 -7 9 -19 14 -27 11 -7 -3 -13 1 -13 10 0 11 -6 15
-20 11 -11 -3 -18 -1 -14 4 7 12 -13 11 -37 -1 -24 -14 -24 -5 0 19 13 13 22
16 30 8 7 -7 15 -6 27 4 13 11 18 11 21 2 6 -16 69 -17 78 -2 4 6 13 8 21 5 8
-3 14 0 14 6 0 7 5 6 15 -2 10 -9 15 -9 15 -1 0 6 6 10 13 8 16 -3 22 144 8
172 -13 24 -77 27 -90 4 -7 -13 -9 -13 -14 2 -4 9 -12 13 -17 10 -6 -4 -19 4
-30 17 l-19 23 -1 -23 c0 -14 -4 -21 -11 -17 -6 4 -8 13 -5 21 7 18 0 18 -11
1z m162 -547 c4 -6 -6 -10 -22 -10 -22 0 -25 2 -13 10 19 12 27 12 35 0z
m-110 -40 c3 -5 -1 -10 -9 -10 -9 0 -16 5 -16 10 0 6 4 10 9 10 6 0 13 -4 16
-10z m19 -284 c-3 -15 -8 -25 -11 -23 -2 3 -1 17 3 31 3 15 8 25 11 23 2 -3 1
-17 -3 -31z m50 9 c-7 -17 -20 -20 -28 -6 -7 10 3 21 20 21 8 0 11 -6 8 -15z
m-41 -70 c-7 -21 -13 -19 -13 6 0 11 4 18 10 14 5 -3 7 -12 3 -20z m-26 -11
c-3 -3 -12 -4 -19 -1 -8 3 -5 6 6 6 11 1 17 -2 13 -5z m-47 -54 c0 -5 -7 -10
-15 -10 -8 0 -15 5 -15 10 0 6 7 10 15 10 8 0 15 -4 15 -10z"/>
<path d="M7326 2141 c-4 -7 -5 -15 -2 -18 9 -9 19 4 14 18 -4 11 -6 11 -12 0z"/>
<path d="M7228 2116 c-9 -20 -15 -23 -33 -16 -39 15 -59 -9 -52 -61 13 -90 33
-144 55 -147 20 -3 20 -4 4 -21 -9 -10 -20 -16 -23 -15 -10 5 -18 -130 -12
-192 5 -45 3 -59 -10 -69 -27 -20 -12 -305 17 -305 8 0 8 -2 -1 -8 -14 -9 -21
-52 -29 -173 l-7 -97 39 4 c21 1 33 1 27 -2 -7 -3 -13 -13 -13 -21 0 -12 3
-13 15 -3 17 14 54 4 51 -14 -1 -7 -10 -21 -19 -31 -10 -10 -16 -24 -13 -32 3
-8 1 -11 -4 -8 -5 3 -19 8 -31 10 -15 3 -19 0 -15 -10 3 -8 1 -17 -4 -20 -6
-4 -10 -1 -10 4 0 6 -5 11 -11 11 -6 0 -9 -23 -7 -62 2 -44 7 -62 16 -60 10 2
10 -3 2 -17 -5 -11 -10 -27 -10 -36 0 -13 4 -14 23 -4 20 11 21 11 9 -4 -11
-13 -10 -15 8 -10 13 4 26 0 31 -8 6 -10 9 -10 9 -2 0 7 7 10 15 7 8 -4 17 1
21 10 3 9 12 16 20 16 19 0 18 -10 -3 -25 -16 -12 -14 -12 10 -8 15 3 27 10
27 17 0 6 7 3 15 -7 10 -15 18 -17 32 -8 17 10 17 10 1 11 -10 0 -18 7 -18 15
0 9 6 12 17 8 10 -4 14 -2 10 4 -4 6 0 13 8 17 8 3 15 11 15 17 0 8 -4 8 -15
-1 -17 -14 -19 -7 -6 37 8 26 7 31 -6 26 -8 -3 -18 -14 -22 -25 -7 -18 -8 -18
-33 6 -20 17 -23 26 -14 29 8 3 18 1 24 -5 7 -7 18 -4 36 8 31 23 41 44 21 44
-19 0 -15 27 8 60 19 27 6 40 -19 20 -12 -11 -13 -10 -9 3 4 8 15 17 26 20 21
6 23 15 9 37 -7 10 -12 12 -17 4 -11 -15 -58 -30 -49 -15 4 6 13 11 20 11 11
0 56 52 56 65 0 12 -24 4 -39 -13 -15 -18 -81 -38 -81 -26 0 15 36 64 47 64
15 0 17 -11 6 -26 -5 -5 0 -1 10 9 9 11 17 27 16 36 0 13 -2 12 -8 -3 -6 -16
-9 -17 -16 -6 -5 8 -4 15 2 17 6 2 18 9 27 16 16 12 16 15 0 52 -12 30 -13 44
-5 57 15 23 14 28 -4 28 -8 0 -15 6 -15 13 0 9 -3 8 -9 -2 -6 -9 -11 -10 -15
-2 -4 6 5 26 19 45 22 29 25 38 15 56 -6 11 -14 19 -18 16 -4 -2 -7 18 -7 45
0 48 0 49 26 44 32 -7 51 14 20 22 -12 3 -21 12 -21 19 0 8 -10 14 -21 14 -18
0 -19 2 -9 15 7 8 19 15 27 15 10 0 12 6 8 21 -5 15 -4 19 4 15 6 -4 14 1 18
11 4 10 11 21 17 25 8 5 7 11 -2 20 -17 17 -15 31 3 24 10 -3 15 1 15 13 0 10
-8 21 -17 25 -10 3 -23 8 -29 11 -6 3 -14 -4 -17 -15 -3 -13 0 -23 8 -26 16
-7 14 -54 -2 -54 -7 0 -13 9 -13 20 0 11 -5 20 -11 20 -6 0 -9 7 -6 15 4 8 2
17 -3 20 -16 10 -11 23 10 30 11 4 18 10 15 15 -3 5 5 10 17 12 19 2 23 9 21
32 -1 17 3 36 10 45 9 11 9 15 0 18 -15 5 -18 43 -3 43 6 0 10 37 10 90 l0 90
-27 -6 c-27 -6 -27 -6 -8 9 16 13 17 16 4 17 -9 0 -24 -9 -34 -20 -10 -12 -13
-20 -6 -20 13 0 -29 -69 -44 -71 -5 0 -18 -2 -27 -4 -9 -2 -23 4 -30 12 -10
12 -9 18 7 29 52 36 56 51 17 65 -18 7 -25 4 -34 -15z m153 -216 c5 0 9 -4 9
-9 0 -4 -13 -8 -29 -7 -25 1 -28 4 -20 22 4 12 5 25 1 29 -3 3 0 10 8 15 12 7
16 3 18 -20 2 -17 7 -30 13 -30z m-76 -9 c18 -7 17 -8 -7 -13 -17 -3 -29 0
-32 8 -6 15 8 17 39 5z m63 -41 c-7 -11 -14 -16 -16 -10 -2 5 -8 10 -13 10 -6
0 -8 -4 -5 -8 2 -4 -4 -8 -14 -8 -28 0 -5 24 28 29 15 2 28 5 30 6 1 0 -3 -8
-10 -19z m-73 -634 c0 -11 -6 -21 -13 -24 -7 -2 -10 2 -6 12 3 9 1 16 -5 16
-6 0 -11 5 -11 11 0 6 8 9 18 7 9 -2 17 -12 17 -22z m-58 -12 c3 -8 -2 -23
-11 -32 -15 -15 -16 -14 -16 16 0 33 16 43 27 16z m28 -54 c-3 -5 2 -22 11
-37 l17 -28 -27 28 c-25 26 -28 47 -5 47 6 0 7 -4 4 -10z m21 -197 c-11 -11
-17 4 -9 23 7 18 8 18 11 1 2 -10 1 -21 -2 -24z m43 -37 c-9 -8 -10 -7 -5 7 3
10 7 24 7 30 1 7 3 4 6 -7 3 -10 -1 -23 -8 -30z m-54 14 c-3 -5 -14 -10 -23
-9 -14 0 -13 2 3 9 27 11 27 11 20 0z m25 -45 c0 -28 -24 -34 -34 -9 -5 14 -4
15 9 4 13 -10 15 -9 15 9 0 11 2 21 5 21 3 0 5 -11 5 -25z m58 3 c-2 -6 -10
-13 -16 -14 -7 -1 -8 0 -2 3 5 2 8 9 4 14 -3 5 0 9 6 9 7 0 10 -5 8 -12z m-94
-44 c14 -5 14 -8 1 -21 -20 -19 -19 -33 2 -33 13 0 14 -3 5 -12 -10 -10 -17
-10 -32 0 -16 9 -22 8 -36 -6 -16 -15 -17 -15 -12 -1 4 9 2 21 -4 27 -14 14
-1 32 23 32 10 0 19 5 19 10 0 11 11 13 34 4z m71 -70 c24 -4 25 -7 8 -29 -10
-13 -17 -16 -20 -8 -2 7 -10 10 -17 7 -8 -3 -11 5 -10 23 2 38 3 40 13 24 5
-8 17 -16 26 -17z m-111 -39 c-4 -8 -10 -12 -15 -9 -14 8 -10 24 6 24 9 0 12
-6 9 -15z"/>
<path d="M7210 810 c0 -5 5 -10 10 -10 6 0 10 5 10 10 0 6 -4 10 -10 10 -5 0
-10 -4 -10 -10z"/>
<path d="M3059 2104 c-11 -14 -10 -167 2 -178 11 -12 159 -15 159 -4 0 6 6 5
15 -2 9 -7 15 -8 15 -2 0 5 8 8 19 5 26 -7 31 5 36 93 6 97 -3 111 -52 83 -22
-12 -45 -18 -59 -15 -12 3 -25 2 -28 -3 -10 -16 -47 0 -41 18 4 12 -2 17 -25
17 -16 1 -35 -4 -41 -12z"/>
<path d="M726 2031 c-3 -5 1 -11 9 -15 9 -3 15 0 15 9 0 16 -16 20 -24 6z"/>
<path d="M3281 1847 c-2 -42 -55 -63 -66 -27 -3 11 -12 20 -19 20 -8 0 -28 3
-45 6 -21 5 -31 3 -31 -6 0 -7 -11 -21 -25 -32 -21 -16 -25 -28 -25 -72 0 -29
-7 -75 -16 -102 -21 -65 -31 -282 -14 -313 8 -16 15 -20 22 -13 8 8 15 6 25
-4 17 -16 49 -19 58 -4 3 6 15 10 26 10 10 0 19 -4 19 -10 0 -5 10 -11 23 -11
20 -1 20 -2 2 -6 -29 -7 -39 -19 -21 -26 9 -4 16 -3 16 1 0 4 10 8 21 9 28 2
58 30 56 53 -1 10 -5 16 -9 14 -11 -7 -21 23 -12 37 5 9 11 7 21 -6 12 -18 13
-17 13 8 0 20 -6 28 -25 33 -26 6 -32 18 -16 29 6 3 6 17 1 35 -5 17 -6 30 -2
30 4 0 0 4 -7 9 -9 6 -22 6 -33 0 -9 -5 -21 -9 -25 -8 -4 1 -10 0 -13 -1 -18
-7 -57 -4 -53 4 4 5 -1 7 -11 3 -12 -5 -16 -3 -14 5 5 14 48 20 48 8 0 -16 39
3 45 21 3 10 15 21 26 24 10 4 19 11 19 17 0 5 7 8 15 4 8 -3 15 0 15 6 0 7 5
7 14 -1 12 -10 17 -6 25 26 16 56 12 130 -9 193 -10 30 -18 47 -19 37z m-1
-221 c0 -3 -4 -8 -10 -11 -5 -3 -10 -1 -10 4 0 6 5 11 10 11 6 0 10 -2 10 -4z
m-180 -26 c0 -5 -4 -10 -10 -10 -5 0 -10 5 -10 10 0 6 5 10 10 10 6 0 10 -4
10 -10z m-15 -33 c-19 -10 -36 0 -29 18 5 11 10 12 25 2 16 -10 16 -13 4 -20z
m-15 -21 c0 -3 -4 -8 -10 -11 -5 -3 -10 -1 -10 4 0 6 5 11 10 11 6 0 10 -2 10
-4z m180 -72 c0 -9 -5 -14 -12 -12 -18 6 -21 28 -4 28 9 0 16 -7 16 -16z"/>
<path d="M3780 1821 c0 -5 -3 -16 -6 -25 -3 -9 -2 -16 4 -16 13 0 23 38 11 46
-5 3 -9 1 -9 -5z"/>
<path d="M2190 1810 c0 -5 7 -7 15 -4 8 4 15 8 15 10 0 2 -7 4 -15 4 -8 0 -15
-4 -15 -10z"/>
<path d="M460 1676 c0 -19 4 -45 9 -58 6 -15 4 -71 -4 -148 -7 -72 -9 -138 -4
-159 4 -20 4 -54 -1 -76 -17 -72 -18 -206 -3 -244 22 -51 2 -117 -37 -126 -34
-7 -56 -30 -40 -40 5 -3 10 -19 10 -36 0 -25 -4 -29 -27 -30 -24 -2 -25 -2 -5
-6 12 -2 22 -9 22 -14 0 -22 20 -6 28 23 4 17 14 34 21 36 10 3 11 0 5 -9 -14
-22 -15 -44 -1 -30 18 18 28 13 22 -12 -9 -32 14 -49 55 -40 29 5 31 7 16 19
-10 6 -13 15 -8 18 16 10 1 64 -19 69 -39 10 -16 45 34 51 34 5 37 3 37 -20 0
-18 -5 -24 -16 -22 -10 2 -19 -2 -21 -8 -5 -16 29 -27 37 -13 6 8 9 8 14 0 4
-6 12 -9 18 -5 6 4 8 -3 6 -17 -2 -20 -8 -24 -35 -22 -23 1 -33 -3 -33 -13 0
-8 7 -14 15 -14 8 0 15 -8 15 -17 1 -16 2 -16 13 -2 12 16 37 15 37 -2 0 -6
-4 -7 -10 -4 -6 3 -10 -4 -10 -16 0 -21 1 -22 20 -4 20 18 24 15 20 -20 -2
-16 0 -17 13 -6 11 9 14 25 11 57 -3 34 -1 44 9 41 7 -2 11 -18 9 -37 -2 -29
0 -32 20 -26 13 3 28 6 33 6 7 0 8 25 4 73 -4 39 -5 82 -2 93 5 23 -20 40 -40
27 -6 -4 -8 0 -5 9 5 11 0 14 -19 12 -18 -2 -23 1 -19 13 3 8 6 16 6 19 0 2 7
1 15 -2 19 -8 65 3 65 15 0 5 -7 12 -16 15 -9 4 -13 2 -8 -5 4 -8 -1 -9 -15
-4 -15 4 -29 1 -40 -10 -17 -15 -19 -14 -24 12 -3 15 -3 30 -1 32 9 10 70 5
82 -6 7 -7 16 -13 20 -13 11 0 16 57 15 165 -1 55 -1 120 0 145 2 122 -1 263
-8 338 l-8 82 -138 0 -139 0 0 -34z m240 -90 c0 -3 -4 -8 -10 -11 -5 -3 -10
-1 -10 4 0 6 5 11 10 11 6 0 10 -2 10 -4z m-218 -708 c-9 -9 -12 -7 -12 12 0
19 3 21 12 12 9 -9 9 -15 0 -24z m193 2 c-3 -5 -13 -10 -21 -10 -8 0 -14 5
-14 10 0 6 9 10 21 10 11 0 17 -4 14 -10z m-255 -60 c0 -5 -5 -10 -11 -10 -5
0 -7 5 -4 10 3 6 8 10 11 10 2 0 4 -4 4 -10z m260 -20 c6 -11 7 -20 3 -20 -5
0 -16 9 -26 20 -14 16 -14 20 -2 20 8 0 19 -9 25 -20z"/>
<path d="M4480 1644 c0 -8 5 -12 10 -9 6 4 8 11 5 16 -9 14 -15 11 -15 -7z"/>
<path d="M4502 1628 c-18 -18 -14 -30 8 -23 26 8 25 -3 -2 -33 l-23 -24 22 6
c16 5 23 2 28 -14 7 -21 30 -27 40 -10 3 6 -3 24 -15 40 -12 17 -17 30 -11 30
6 0 11 5 11 11 0 5 -4 7 -10 4 -5 -3 -10 1 -10 9 0 19 -21 21 -38 4z"/>
<path d="M9230 1616 c0 -9 5 -16 10 -16 6 0 10 4 10 9 0 6 -4 13 -10 16 -5 3
-10 -1 -10 -9z"/>
<path d="M7370 1576 c0 -9 5 -16 10 -16 6 0 10 4 10 9 0 6 -4 13 -10 16 -5 3
-10 -1 -10 -9z"/>
<path d="M9190 1552 c0 -17 52 -12 58 6 3 8 -6 12 -27 10 -18 -1 -31 -8 -31
-16z"/>
<path d="M5705 1549 c-4 -6 -5 -12 -2 -15 2 -3 7 2 10 11 7 17 1 20 -8 4z"/>
<path d="M2237 1519 c-7 -27 -1 -37 14 -22 7 7 8 17 2 28 -9 15 -11 15 -16 -6z"/>
<path d="M2485 1530 c-3 -5 -2 -10 4 -10 5 0 13 5 16 10 3 6 2 10 -4 10 -5 0
-13 -4 -16 -10z"/>
<path d="M4495 1530 c3 -5 8 -10 11 -10 2 0 4 5 4 10 0 6 -5 10 -11 10 -5 0
-7 -4 -4 -10z"/>
<path d="M4460 1505 c-7 -9 -11 -18 -8 -20 3 -3 11 1 18 10 7 9 11 18 8 20 -3
3 -11 -1 -18 -10z"/>
<path d="M8753 1500 c-1 -13 5 -18 18 -17 24 2 25 13 1 26 -14 7 -18 6 -19 -9z"/>
<path d="M3907 1504 c-3 -3 -3 -12 0 -20 3 -8 -5 -18 -20 -25 -36 -16 -41 -36
-11 -42 16 -3 24 0 24 9 0 8 6 14 13 14 8 0 13 13 13 35 0 33 -6 42 -19 29z"/>
<path d="M3280 1486 c0 -9 5 -16 10 -16 6 0 10 4 10 9 0 6 -4 13 -10 16 -5 3
-10 -1 -10 -9z"/>
<path d="M3844 1489 c-3 -6 -1 -16 5 -22 8 -8 11 -5 11 11 0 24 -5 28 -16 11z"/>
<path d="M9245 1490 c-3 -5 1 -10 9 -10 9 0 16 5 16 10 0 6 -4 10 -9 10 -6 0
-13 -4 -16 -10z"/>
<path d="M4880 1466 c0 -9 5 -16 10 -16 6 0 10 4 10 9 0 6 -4 13 -10 16 -5 3
-10 -1 -10 -9z"/>
<path d="M3746 1445 c-3 -9 0 -15 9 -15 9 0 12 6 9 15 -4 8 -7 15 -9 15 -2 0
-5 -7 -9 -15z"/>
<path d="M7375 1440 c-3 -5 1 -10 9 -10 9 0 16 5 16 10 0 6 -4 10 -9 10 -6 0
-13 -4 -16 -10z"/>
<path d="M4950 1419 c0 -5 5 -7 10 -4 6 3 10 8 10 11 0 2 -4 4 -10 4 -5 0 -10
-5 -10 -11z"/>
<path d="M7408 1415 c-4 -4 -4 -13 -1 -21 3 -8 -1 -14 -11 -14 -9 0 -16 -4
-16 -10 0 -15 30 -12 36 4 7 19 1 50 -8 41z"/>
<path d="M3928 1393 c-10 -2 -18 -11 -18 -18 0 -18 26 -9 34 11 3 8 4 13 3 13
-1 -1 -10 -3 -19 -6z"/>
<path d="M4160 1370 c-17 -11 -8 -23 14 -18 9 2 12 8 8 15 -5 8 -13 9 -22 3z"/>
<path d="M5917 1374 c-13 -13 -7 -44 7 -44 8 0 17 4 20 9 7 11 -18 44 -27 35z"/>
<path d="M3995 1360 c3 -5 13 -10 21 -10 8 0 12 5 9 10 -3 6 -13 10 -21 10 -8
0 -12 -4 -9 -10z"/>
<path d="M3940 1344 c0 -14 3 -14 15 -4 8 7 15 14 15 16 0 2 -7 4 -15 4 -8 0
-15 -7 -15 -16z"/>
<path d="M5957 1324 c-8 -8 1 -24 14 -24 5 0 9 7 9 15 0 15 -12 20 -23 9z"/>
<path d="M2491 1304 c0 -11 3 -14 6 -6 3 7 2 16 -1 19 -3 4 -6 -2 -5 -13z"/>
<path d="M7395 1290 c3 -5 8 -10 11 -10 2 0 4 5 4 10 0 6 -5 10 -11 10 -5 0
-7 -4 -4 -10z"/>
<path d="M2170 1281 l-25 -7 23 -6 c19 -5 22 -11 17 -27 -4 -15 -2 -21 9 -21
10 0 14 10 13 35 -1 19 -4 34 -7 34 -3 -1 -16 -4 -30 -8z"/>
<path d="M3113 1250 c-4 -24 -10 -29 -23 -25 -15 5 -17 2 -13 -15 4 -15 11
-19 25 -15 15 5 14 2 -7 -19 -22 -22 -25 -33 -25 -96 0 -38 3 -69 8 -68 4 1
18 -2 31 -6 16 -6 26 -4 32 5 5 8 9 9 9 3 0 -6 15 -8 43 -4 34 4 42 9 40 25
-1 11 5 23 12 28 10 5 12 18 8 43 -5 33 -4 36 14 30 14 -4 23 -1 26 8 8 20 -8
29 -33 21 -14 -4 -19 -2 -16 7 15 50 16 51 31 38 23 -19 18 -2 -9 26 -20 22
-27 24 -44 15 -28 -15 -59 -14 -65 2 -3 9 -7 9 -20 -2 -19 -15 -23 -1 -5 17 9
9 9 12 0 12 -7 0 -15 -14 -19 -30z"/>
<path d="M4541 1254 c0 -11 3 -14 6 -6 3 7 2 16 -1 19 -3 4 -6 -2 -5 -13z"/>
<path d="M4644 1258 c-4 -7 -3 -8 4 -4 7 4 12 2 12 -3 0 -6 -15 -12 -32 -12
-46 -2 -89 -7 -105 -13 -8 -3 -11 -1 -8 4 12 20 -7 32 -21 13 -9 -12 -13 -13
-14 -5 0 7 -4 11 -8 8 -5 -3 -9 -57 -11 -122 -2 -102 0 -116 13 -111 9 4 16 2
16 -3 0 -7 19 -8 63 -1 4 0 7 12 7 26 0 23 2 25 23 14 12 -7 25 -17 29 -23 5
-7 13 -5 25 7 13 13 15 20 6 25 -7 5 -9 13 -4 21 5 7 14 10 20 7 6 -4 11 0 11
8 0 9 -5 16 -10 16 -6 0 -4 13 5 30 9 17 22 30 30 30 23 0 18 18 -11 36 -15
11 -21 20 -14 24 12 7 3 40 -10 40 -5 0 -12 -5 -16 -12z"/>
<path d="M5875 1260 c-2 -3 1 -7 8 -7 7 0 18 -2 26 -4 7 -2 15 1 18 7 4 12
-44 16 -52 4z"/>
<path d="M3596 1252 c-2 -4 -1 -14 5 -22 7 -12 9 -10 9 8 0 23 -5 28 -14 14z"/>
<path d="M3496 1234 c-3 -8 -4 -66 -1 -127 8 -148 6 -139 22 -126 8 8 13 35
13 78 0 42 5 74 14 86 13 19 15 17 21 -18 6 -32 11 -37 35 -37 16 0 31 6 34
13 3 9 9 7 19 -6 12 -14 17 -15 23 -6 4 7 3 14 -3 16 -13 5 4 83 18 83 5 0 8
-4 7 -9 -3 -9 1 -11 26 -11 9 0 12 7 9 21 -3 11 -11 18 -19 15 -7 -3 -16 -1
-19 4 -3 5 -13 6 -22 3 -11 -4 -14 -3 -9 5 5 8 -1 12 -18 12 -14 0 -26 -4 -26
-10 0 -5 -19 -9 -42 -9 -39 1 -40 2 -13 8 20 4 26 9 17 14 -7 5 -26 5 -43 2
-22 -5 -29 -4 -25 4 4 6 3 11 -2 11 -6 0 -13 -7 -16 -16z"/>
<path d="M2491 1164 c0 -56 2 -64 10 -44 6 14 8 42 6 63 -8 65 -17 54 -16 -19z"/>
<path d="M7390 1220 c0 -5 5 -10 10 -10 6 0 10 5 10 10 0 6 -4 10 -10 10 -5 0
-10 -4 -10 -10z"/>
<path d="M5710 1195 c-17 -20 -24 -89 -12 -112 7 -12 7 -24 2 -29 -6 -6 -5
-15 0 -24 8 -12 13 -13 30 -2 11 6 23 12 27 12 5 0 2 -4 -5 -8 -10 -7 -8 -13
5 -28 18 -20 53 -21 53 -2 0 5 6 8 13 5 17 -6 36 23 37 57 0 22 -3 27 -17 22
-10 -3 -5 5 11 18 27 22 29 27 18 50 -9 19 -9 26 0 26 6 0 8 3 5 6 -4 4 -13 1
-22 -6 -10 -8 -15 -9 -15 -1 0 6 -7 11 -15 11 -8 0 -15 -4 -15 -10 0 -5 5 -10
11 -10 8 0 8 -4 0 -13 -6 -8 -9 -23 -6 -34 6 -34 -46 -50 -77 -24 -21 17 -24
41 -5 41 19 0 60 47 52 59 -9 16 -61 13 -75 -4z m95 -163 c-3 -3 -11 0 -18 7
-9 10 -8 11 6 5 10 -3 15 -9 12 -12z"/>
<path d="M3920 1180 c-13 -9 -13 -11 0 -20 13 -8 11 -13 -10 -32 -14 -13 -21
-20 -16 -15 6 4 18 7 27 7 21 0 31 23 21 50 -5 14 -11 17 -22 10z"/>
<path d="M5914 1175 c19 -14 19 -15 0 -32 -26 -23 -27 -63 -2 -63 10 0 18 -4
18 -10 0 -16 27 -12 34 5 8 21 -4 46 -18 39 -6 -3 -4 0 5 8 23 20 32 50 17 60
-7 4 -26 8 -43 8 -28 -1 -29 -1 -11 -15z"/>
<path d="M3763 1163 c-7 -2 -13 -11 -13 -18 0 -7 -9 -15 -21 -18 -12 -3 -18
-10 -14 -16 4 -8 12 -8 26 -1 11 6 24 8 29 5 6 -4 10 7 10 24 0 17 -1 31 -2
30 -2 0 -9 -3 -15 -6z"/>
<path d="M3830 1160 c0 -12 26 -31 33 -23 12 11 7 21 -13 26 -11 3 -20 2 -20
-3z"/>
<path d="M4715 1160 c-3 -5 -1 -10 4 -10 6 0 11 5 11 10 0 6 -2 10 -4 10 -3 0
-8 -4 -11 -10z"/>
<path d="M5880 1159 c0 -5 5 -7 10 -4 6 3 10 8 10 11 0 2 -4 4 -10 4 -5 0 -10
-5 -10 -11z"/>
<path d="M3300 1128 c0 -8 4 -18 9 -23 5 -6 11 -21 14 -35 3 -19 5 -16 6 11 0
22 -5 42 -14 49 -12 10 -15 10 -15 -2z"/>
<path d="M8363 1133 c-7 -3 -13 -12 -13 -21 0 -15 2 -15 17 1 18 18 16 27 -4
20z"/>
<path d="M5780 1110 c0 -5 5 -10 10 -10 6 0 10 5 10 10 0 6 -4 10 -10 10 -5 0
-10 -4 -10 -10z"/>
<path d="M7431 1073 c-1 -24 -5 -43 -11 -43 -6 0 -5 -10 2 -25 l11 -25 14 26
c15 29 18 98 4 90 -5 -4 -12 0 -14 6 -3 7 -6 -6 -6 -29z"/>
<path d="M3750 1091 c0 -6 4 -11 9 -11 5 0 12 -8 15 -17 3 -11 4 -8 3 6 -2 24
-27 44 -27 22z"/>
<path d="M4710 1085 c0 -8 5 -15 10 -15 6 0 10 7 10 15 0 8 -4 15 -10 15 -5 0
-10 -7 -10 -15z"/>
<path d="M6320 1091 c0 -6 -11 -16 -24 -23 -21 -9 -23 -13 -11 -24 7 -8 16
-14 18 -14 9 0 30 61 23 67 -3 3 -6 1 -6 -6z"/>
<path d="M3276 1081 c-4 -7 -5 -15 -2 -18 9 -9 19 4 14 18 -4 11 -6 11 -12 0z"/>
<path d="M3573 1060 c2 -29 47 -44 47 -16 0 9 -8 16 -19 16 -11 0 -22 6 -25
13 -3 6 -4 1 -3 -13z"/>
<path d="M8370 1070 c0 -6 7 -10 15 -10 8 0 15 2 15 4 0 2 -7 6 -15 10 -8 3
-15 1 -15 -4z"/>
<path d="M2147 1063 c-13 -12 -7 -33 8 -33 8 0 15 9 15 20 0 20 -11 26 -23 13z"/>
<path d="M5892 1061 c4 -13 18 -16 19 -4 0 4 -5 9 -11 12 -7 2 -11 -2 -8 -8z"/>
<path d="M4680 1050 c0 -5 5 -10 10 -10 6 0 10 5 10 10 0 6 -4 10 -10 10 -5 0
-10 -4 -10 -10z"/>
<path d="M3307 1026 c-3 -8 -2 -18 3 -21 13 -8 20 9 11 24 -6 10 -10 9 -14 -3z"/>
<path d="M3583 1009 c-32 -12 -29 -29 5 -29 19 0 23 -3 13 -9 -7 -5 -12 -14
-10 -20 3 -9 9 -8 20 1 14 11 15 18 5 39 -9 22 -15 25 -33 18z"/>
<path d="M8632 1008 c2 -6 10 -14 16 -16 7 -2 10 2 6 12 -7 18 -28 22 -22 4z"/>
<path d="M2140 1000 c0 -5 5 -10 10 -10 6 0 10 5 10 10 0 6 -4 10 -10 10 -5 0
-10 -4 -10 -10z"/>
<path d="M8645 970 c-3 -5 -1 -10 4 -10 6 0 11 5 11 10 0 6 -2 10 -4 10 -3 0
-8 -4 -11 -10z"/>
<path d="M2105 949 c-4 -6 -5 -12 -2 -15 2 -3 7 2 10 11 7 17 1 20 -8 4z"/>
<path d="M4635 940 c-3 -5 -1 -10 4 -10 6 0 11 5 11 10 0 6 -2 10 -4 10 -3 0
-8 -4 -11 -10z"/>
<path d="M9034 941 c4 -5 -9 -19 -28 -30 -38 -24 -46 -38 -46 -84 0 -41 12
-59 33 -51 9 3 17 2 17 -3 0 -10 66 -9 130 2 20 3 37 12 37 18 0 7 2 21 6 32
4 15 -5 27 -38 52 -30 22 -47 29 -51 21 -4 -7 -2 -14 4 -16 15 -5 16 -42 1
-42 -5 0 -17 16 -25 35 -8 19 -19 35 -25 35 -6 0 -8 9 -4 20 4 12 2 20 -5 20
-6 0 -9 -4 -6 -9z m-13 -74 c-10 -9 -11 -8 -5 6 3 10 9 15 12 12 3 -3 0 -11
-7 -18z m49 -48 c0 -6 -4 -7 -10 -4 -5 3 -10 11 -10 16 0 6 5 7 10 4 6 -3 10
-11 10 -16z"/>
<path d="M3510 894 c0 -24 5 -44 10 -44 6 0 10 5 10 10 0 6 5 10 10 10 6 0 10
-7 10 -17 0 -9 -3 -13 -7 -10 -15 16 -33 -18 -33 -64 0 -37 4 -49 15 -49 8 0
15 4 15 8 0 14 38 11 44 -4 3 -8 10 -14 16 -14 6 0 9 4 5 9 -3 5 -1 12 4 15 5
3 11 -3 14 -14 5 -18 7 -18 33 -5 44 21 89 30 80 16 -5 -7 2 -11 18 -11 13 0
27 -6 30 -12 4 -7 4 3 1 22 -3 19 -9 56 -12 83 -3 26 -9 47 -13 47 -5 0 -6 10
-2 22 4 16 2 19 -9 13 -7 -5 -24 -10 -37 -11 -19 -2 -21 0 -11 12 8 10 8 14 0
14 -11 0 -15 -13 -12 -37 1 -7 -5 -13 -14 -13 -9 0 -14 4 -11 9 8 12 -11 18
-54 17 -23 -1 -35 -6 -36 -16 -3 -32 -5 -34 -15 -17 -5 9 -18 17 -27 17 -16 1
-16 1 1 11 23 13 22 35 -3 42 -18 5 -20 0 -20 -39z m137 -20 c-3 -3 -12 -4
-19 -1 -8 3 -5 6 6 6 11 1 17 -2 13 -5z m92 -39 c12 3 17 -1 17 -15 0 -25 -4
-25 -39 -1 -32 21 -35 30 -15 42 9 6 14 2 16 -12 2 -14 9 -18 21 -14z m-94 15
c3 -5 1 -10 -4 -10 -6 0 -11 5 -11 10 0 6 2 10 4 10 3 0 8 -4 11 -10z m62 -97
c-3 -3 -11 -2 -17 2 -8 5 -7 11 2 22 12 15 13 14 16 -1 2 -10 1 -20 -1 -23z"/>
<path d="M6200 929 c0 -5 5 -7 10 -4 6 3 10 8 10 11 0 2 -4 4 -10 4 -5 0 -10
-5 -10 -11z"/>
<path d="M3630 921 c0 -5 9 -7 20 -4 11 3 20 7 20 9 0 2 -9 4 -20 4 -11 0 -20
-4 -20 -9z"/>
<path d="M2064 895 c-7 -17 3 -35 19 -35 8 0 8 3 0 11 -6 6 -9 18 -6 25 3 8 2
14 -1 14 -4 0 -9 -7 -12 -15z"/>
<path d="M8670 906 c0 -2 7 -6 15 -10 8 -3 15 -1 15 4 0 6 -7 10 -15 10 -8 0
-15 -2 -15 -4z"/>
<path d="M2100 890 c0 -5 4 -10 9 -10 6 0 13 5 16 10 3 6 -1 10 -9 10 -9 0
-16 -4 -16 -10z"/>
<path d="M3070 879 c0 -18 2 -19 15 -9 15 12 12 30 -6 30 -5 0 -9 -10 -9 -21z"/>
<path d="M3146 883 c-6 -15 -8 -15 -16 -3 -7 11 -10 11 -11 3 -3 -28 -4 -32
-11 -39 -18 -18 -8 -55 18 -64 23 -9 26 -15 22 -45 -3 -27 -1 -32 9 -23 10 8
13 7 13 -3 1 -11 3 -11 13 1 14 18 57 26 57 11 0 -6 5 -11 10 -11 6 0 10 8 10
18 0 12 2 14 8 4 14 -21 42 -3 42 27 0 17 -3 22 -8 13 -6 -9 -12 -5 -21 14
-10 23 -9 30 10 50 18 20 20 26 9 39 -12 14 -15 14 -33 -2 -11 -10 -17 -13
-14 -7 4 8 -9 16 -38 23 -58 14 -62 14 -69 -6z m4 -33 c0 -5 -4 -10 -10 -10
-5 0 -10 5 -10 10 0 6 5 10 10 10 6 0 10 -4 10 -10z m90 -36 c0 -8 7 -22 15
-31 9 -8 13 -18 10 -21 -3 -3 -11 0 -17 6 -14 14 -42 16 -33 2 3 -5 0 -7 -8
-4 -8 3 -17 -2 -20 -10 -11 -29 -22 -16 -24 27 -1 23 2 35 5 27 6 -13 19 -16
56 -11 5 1 3 8 -4 16 -10 12 -10 15 4 15 9 0 16 -7 16 -16z"/>
<path d="M4510 889 c0 -5 6 -7 13 -3 8 5 8 2 -2 -9 -8 -11 -9 -17 -3 -17 6 0
16 9 22 20 9 17 8 20 -10 20 -11 0 -20 -5 -20 -11z"/>
<path d="M4670 880 c0 -17 -5 -19 -30 -15 -19 3 -43 -2 -69 -16 -47 -24 -78
-22 -73 5 2 11 -1 16 -10 14 -9 -4 -13 -25 -12 -74 0 -59 3 -69 17 -66 9 2 17
-3 17 -10 0 -7 9 -2 20 12 l20 25 0 -25 c0 -18 3 -21 9 -11 6 9 19 12 40 8 16
-4 33 -2 36 3 3 6 13 10 22 10 13 0 13 -2 2 -17 -13 -15 -10 -15 26 -9 22 4
45 8 50 9 18 3 25 21 25 62 0 70 -8 85 -46 85 -26 0 -32 4 -28 15 4 8 1 15 -5
15 -6 0 -11 -9 -11 -20z m-63 -43 c-6 -13 -19 -24 -29 -24 -24 -2 -23 14 2 22
11 3 20 11 20 16 0 5 4 9 9 9 5 0 4 -10 -2 -23z m120 7 c9 -23 -13 -40 -32
-24 -8 7 -15 19 -15 26 0 19 39 18 47 -2z m-44 -28 c3 -8 3 -17 0 -20 -9 -9
-34 15 -27 25 8 13 21 11 27 -5z"/>
<path d="M5710 880 c-20 -20 -18 -45 5 -53 15 -7 57 21 50 33 -3 4 2 11 11 14
8 3 12 10 9 16 -10 17 -54 11 -75 -10z"/>
<path d="M290 879 c0 -5 5 -7 10 -4 6 3 10 8 10 11 0 2 -4 4 -10 4 -5 0 -10
-5 -10 -11z"/>
<path d="M2123 875 c-24 -11 -30 -19 -26 -35 7 -26 9 -25 27 8 20 35 20 12 1
-35 -19 -45 -19 -46 5 -31 11 7 20 19 20 26 0 7 5 10 10 7 9 -6 15 18 10 40
-1 6 -3 16 -3 23 0 14 -3 14 -44 -3z"/>
<path d="M5847 876 c-11 -9 -15 -20 -10 -31 4 -13 3 -16 -5 -11 -7 4 -16 -3
-23 -18 -10 -21 -16 -24 -43 -19 -17 3 -37 10 -43 16 -24 18 -38 0 -41 -51 -2
-28 1 -52 5 -55 43 -27 193 -8 193 24 0 23 20 35 30 19 4 -7 13 -9 19 -5 7 4
18 2 26 -5 23 -19 29 9 6 31 -12 11 -21 17 -21 14 0 -3 -9 4 -20 15 -24 24
-25 36 -4 44 22 8 8 25 -16 19 -14 -4 -20 0 -20 11 0 19 -9 20 -33 2z"/>
<path d="M9200 865 c0 -8 7 -15 15 -15 8 0 15 7 15 15 0 8 -7 15 -15 15 -8 0
-15 -7 -15 -15z"/>
<path d="M7444 851 c3 -5 -1 -14 -9 -21 -8 -7 -15 -17 -15 -23 0 -5 9 -2 20 8
21 19 27 45 9 45 -5 0 -8 -4 -5 -9z"/>
<path d="M2066 834 c-4 -9 -4 -19 -2 -21 8 -8 26 8 26 23 0 19 -16 18 -24 -2z"/>
<path d="M3069 828 c-1 -13 0 -27 1 -33 2 -5 3 -20 3 -32 1 -15 7 -23 19 -23
22 0 24 26 3 46 -9 10 -13 24 -9 40 4 14 2 24 -5 24 -6 0 -12 -10 -12 -22z"/>
<path d="M2205 830 c-3 -6 1 -7 9 -4 18 7 21 14 7 14 -6 0 -13 -4 -16 -10z"/>
<path d="M5947 823 c-4 -3 -7 -11 -7 -16 0 -6 3 -7 7 -4 3 4 12 2 20 -4 10 -9
13 -7 13 10 0 20 -19 28 -33 14z"/>
<path d="M9198 818 c-7 -18 2 -39 13 -32 12 7 12 44 0 44 -5 0 -11 -6 -13 -12z"/>
<path d="M300 804 c0 -8 5 -12 10 -9 6 4 8 11 5 16 -9 14 -15 11 -15 -7z"/>
<path d="M8474 805 c-7 -18 3 -51 13 -42 3 4 12 2 19 -4 8 -7 14 -7 19 1 9 15
-4 31 -23 28 -11 -2 -16 3 -16 15 2 21 -5 22 -12 2z"/>
<path d="M8520 805 c0 -9 5 -15 11 -13 6 2 11 8 11 13 0 5 -5 11 -11 13 -6 2
-11 -4 -11 -13z"/>
<path d="M7441 796 c-7 -8 -9 -21 -5 -27 5 -9 10 -5 16 11 10 28 5 36 -11 16z"/>
<path d="M2070 790 c0 -5 5 -10 11 -10 5 0 7 5 4 10 -3 6 -8 10 -11 10 -2 0
-4 -4 -4 -10z"/>
<path d="M2163 787 c2 -6 -8 -21 -21 -34 -13 -13 -21 -27 -18 -31 4 -3 12 0
17 8 8 11 12 12 15 3 8 -19 79 10 79 33 0 14 -10 20 -38 25 -23 4 -36 2 -34
-4z"/>
<path d="M6420 735 c0 -9 5 -15 11 -13 6 2 11 8 11 13 0 5 -5 11 -11 13 -6 2
-11 -4 -11 -13z"/>
<path d="M6380 730 c0 -5 5 -10 10 -10 6 0 10 5 10 10 0 6 -4 10 -10 10 -5 0
-10 -4 -10 -10z"/>
<path d="M3550 719 c0 -5 5 -7 10 -4 6 3 10 8 10 11 0 2 -4 4 -10 4 -5 0 -10
-5 -10 -11z"/>
<path d="M5950 709 c0 -5 5 -7 10 -4 6 3 10 8 10 11 0 2 -4 4 -10 4 -5 0 -10
-5 -10 -11z"/>
<path d="M1020 689 c0 -5 5 -7 10 -4 6 3 10 8 10 11 0 2 -4 4 -10 4 -5 0 -10
-5 -10 -11z"/>
<path d="M8741 691 c-8 -5 -20 -7 -28 -4 -7 3 -13 0 -13 -7 0 -6 -10 -10 -24
-8 -33 4 -56 -19 -56 -57 0 -18 -8 -39 -18 -48 -24 -22 -71 -22 -88 1 -12 15
-13 14 -14 -13 0 -67 15 -84 82 -91 19 -1 28 3 31 18 7 24 28 19 42 -9 11 -25
70 -36 86 -17 15 19 25 109 19 181 -4 50 -8 61 -19 54z"/>
<path d="M8028 673 c7 -3 16 -2 19 1 4 3 -2 6 -13 5 -11 0 -14 -3 -6 -6z"/>
<path d="M9190 670 c0 -5 5 -10 10 -10 6 0 10 5 10 10 0 6 -4 10 -10 10 -5 0
-10 -4 -10 -10z"/>
<path d="M8500 655 c-14 -17 -5 -65 13 -65 6 0 23 9 36 19 20 15 22 21 12 39
-14 25 -43 29 -61 7z"/>
<path d="M9064 661 c8 -13 -55 -23 -69 -11 -21 18 -38 -17 -43 -89 -3 -50 0
-77 12 -99 8 -16 15 -45 14 -63 -1 -47 12 -100 23 -93 5 3 9 0 9 -7 0 -6 8 -1
18 12 21 27 27 96 10 116 -6 7 -8 16 -4 20 3 3 6 0 6 -8 0 -12 2 -11 11 1 8
11 12 12 16 3 5 -14 24 -18 22 -5 -4 24 3 43 14 39 6 -2 21 0 31 5 14 8 21 6
28 -6 14 -24 75 -21 83 4 3 11 10 20 14 20 4 0 8 7 8 15 0 8 -4 15 -7 15 -4 0
-13 20 -19 45 -6 25 -16 45 -22 45 -5 0 -8 -4 -4 -9 3 -5 1 -12 -5 -16 -5 -3
-10 -1 -10 5 0 6 -5 8 -10 5 -6 -4 -7 -11 -4 -17 4 -6 2 -8 -4 -4 -6 3 -15 -2
-21 -11 -10 -17 -11 -15 -15 20 0 6 -12 14 -25 15 -31 5 -53 26 -45 46 3 9 1
16 -6 16 -6 0 -9 -4 -6 -9z m136 -95 c0 -3 -4 -8 -10 -11 -5 -3 -10 -1 -10 4
0 6 5 11 10 11 6 0 10 -2 10 -4z m-176 -231 c-6 -16 -24 -21 -24 -7 0 11 11
22 21 22 5 0 6 -7 3 -15z"/>
<path d="M5343 653 c11 -3 16 -11 13 -19 -8 -20 8 -25 30 -9 19 14 19 14 -1
15 -17 0 -17 2 -5 10 11 7 6 9 -20 9 -19 -1 -27 -3 -17 -6z"/>
<path d="M8020 639 c0 -21 -9 -27 -52 -39 -30 -9 -30 -9 -13 10 14 15 15 20 4
20 -23 0 -42 -17 -38 -31 3 -8 -8 -26 -23 -41 -15 -15 -28 -22 -28 -17 0 6 -6
7 -12 4 -7 -4 -5 0 4 7 21 18 11 32 -27 37 -35 4 -50 4 -203 -2 -88 -4 -116
-2 -127 9 -7 8 -16 10 -19 5 -6 -9 -75 -6 -103 4 -7 2 -13 -2 -13 -10 0 -8 -5
-15 -11 -15 -7 0 -9 9 -6 21 5 20 5 20 -14 3 -10 -9 -19 -13 -19 -9 0 5 -5 4
-12 -3 -18 -18 -28 -15 -21 6 6 16 5 16 -14 0 -23 -21 -43 -23 -43 -6 0 9 -3
9 -12 0 -7 -7 -21 -11 -32 -11 -16 1 -17 2 -4 6 9 2 16 13 15 24 -1 12 -6 18
-15 14 -7 -3 -16 -5 -18 -5 -9 0 -3 -34 17 -93 12 -34 23 -71 26 -82 9 -36 4
-138 -7 -149 -13 -13 -13 -36 0 -36 5 0 7 8 4 17 -5 14 -4 15 4 4 8 -11 10
-11 15 0 3 9 6 10 6 2 1 -6 -3 -15 -9 -18 -5 -3 -10 -28 -10 -55 0 -27 -5 -61
-10 -76 -13 -32 -11 -34 34 -44 39 -9 50 -2 40 25 -6 13 -9 14 -16 3 -7 -9 -8
-5 -3 12 9 34 13 71 19 160 4 78 10 100 33 137 l14 22 34 -20 c18 -11 35 -29
38 -41 6 -21 7 -21 26 -4 11 10 25 15 30 11 15 -9 36 14 44 47 4 15 14 34 23
42 20 20 78 21 94 1 15 -18 -1 -20 -18 -3 -10 10 -11 5 -6 -21 5 -25 4 -32 -4
-27 -7 4 -12 2 -12 -3 0 -16 27 -13 54 5 23 14 25 14 31 -6 10 -30 48 -52 79
-44 15 3 32 1 40 -5 14 -11 55 -9 76 4 6 4 17 2 24 -4 10 -8 20 -6 40 10 l27
21 24 -22 c20 -19 27 -21 40 -10 8 7 15 9 15 5 0 -4 7 -2 16 5 8 8 26 15 40
16 21 2 23 0 13 -12 -9 -12 -6 -14 19 -14 34 0 37 7 48 112 l7 66 -44 -3 c-24
-3 -35 -2 -24 1 11 4 25 11 32 16 7 5 17 7 23 3 6 -3 10 3 10 15 0 14 -4 19
-12 14 -11 -7 -58 -17 -133 -29 -19 -3 -25 -2 -17 4 8 4 13 12 12 17 -1 5 9
11 22 14 21 5 24 12 20 38 -3 17 -32 8 -32 -9z m130 -107 c0 -11 -22 -32 -33
-32 -5 0 -4 6 2 13 6 8 8 17 4 20 -3 4 1 7 10 7 10 0 17 -4 17 -8z"/>
<path d="M616 634 c-9 -23 -2 -28 13 -10 7 8 8 17 3 20 -6 3 -13 -1 -16 -10z"/>
<path d="M4047 634 c-13 -13 -7 -23 13 -21 11 1 19 6 17 11 -4 13 -21 18 -30
10z"/>
<path d="M5260 625 c-7 -8 -9 -18 -6 -23 6 -10 -38 -52 -54 -52 -14 0 -12 17
3 23 6 2 8 8 4 13 -14 14 -297 12 -336 -3 -18 -7 -37 -10 -43 -7 -5 3 -12 -3
-15 -14 -5 -20 -37 -32 -61 -24 -10 3 -10 7 0 20 10 12 10 14 1 8 -7 -4 -13
-2 -13 3 0 6 -4 11 -10 11 -5 0 -10 -7 -10 -15 0 -8 -5 -15 -10 -15 -6 0 -5
-12 4 -28 14 -27 13 -28 -10 -30 -15 -1 -24 4 -24 13 0 9 6 12 16 8 14 -5 15
-3 6 14 -8 15 -8 23 1 33 10 10 8 12 -7 6 -10 -3 -24 -2 -31 4 -9 8 -13 7 -12
-2 1 -37 -5 -55 -18 -55 -18 0 -19 9 -3 25 9 9 9 12 0 12 -7 0 -15 -13 -18
-30 -4 -16 -13 -30 -20 -30 -8 0 -14 -4 -14 -9 0 -5 -7 -12 -16 -15 -8 -3 -12
-2 -9 4 9 14 -2 12 -40 -6 -23 -10 -32 -21 -28 -30 3 -9 12 -13 19 -10 7 3 17
-1 21 -9 7 -13 12 -12 37 0 25 13 32 13 57 1 26 -13 29 -13 29 2 0 18 49 47
59 36 3 -4 0 -9 -6 -11 -7 -3 -13 -14 -13 -26 0 -16 3 -18 12 -9 17 17 29 15
22 -3 -7 -17 6 -19 56 -9 21 5 39 18 52 38 11 17 18 23 15 14 -13 -38 50 -45
102 -11 22 14 25 13 53 -17 25 -28 33 -31 63 -26 22 5 35 3 35 -4 0 -11 65 -9
76 3 4 3 14 2 23 -2 18 -10 55 1 66 19 5 8 15 4 31 -11 19 -18 27 -20 36 -11
16 16 31 15 23 0 -4 -7 1 -4 9 6 9 11 27 20 41 21 26 1 34 -10 13 -18 -7 -3 1
-6 19 -6 36 -1 40 3 48 50 3 19 8 46 11 61 3 14 0 29 -5 33 -6 3 -11 -1 -11
-9 0 -9 -8 -16 -18 -16 -10 0 -19 7 -19 15 0 8 4 12 9 9 4 -3 8 0 8 5 0 6 9
11 20 11 11 0 20 4 20 10 0 5 -20 8 -47 5 -27 -2 -39 -2 -28 1 11 3 27 8 35
11 8 3 18 5 23 5 4 -1 7 10 7 26 -1 23 -2 24 -11 10 -5 -10 -19 -18 -29 -18
-11 0 -20 -5 -20 -11 0 -8 -4 -9 -13 0 -8 6 -17 8 -20 4 -4 -3 -20 -7 -36 -8
-24 -1 -29 2 -26 17 2 10 0 16 -4 14 -4 -3 -21 -7 -37 -10 l-29 -5 23 17 c22
17 22 18 3 19 -11 1 -25 -5 -31 -12z m-335 -45 c-3 -5 -12 -10 -18 -10 -7 0
-6 4 3 10 19 12 23 12 15 0z m-155 -107 c15 -18 12 -30 -10 -36 -11 -3 -18 -1
-15 3 3 5 0 12 -6 16 -8 5 -8 9 1 14 9 6 9 13 0 31 -11 23 -10 23 4 4 8 -11
20 -25 26 -32z m50 -18 c0 -34 -13 -47 -23 -22 -5 13 9 57 18 57 3 0 5 -16 5
-35z"/>
<path d="M5950 633 c-8 -2 -25 -9 -37 -15 -12 -6 -28 -8 -36 -5 -19 7 -49 -25
-47 -50 4 -30 1 -41 -16 -57 -21 -21 -64 -20 -80 1 -19 27 -26 10 -19 -40 5
-34 12 -47 28 -53 36 -12 77 -11 77 3 0 25 24 26 44 1 12 -15 35 -27 54 -30
29 -4 35 -1 45 21 12 30 16 211 4 211 -5 0 -5 5 -2 10 3 6 5 10 3 9 -2 0 -10
-3 -18 -6z"/>
<path d="M3070 620 c-9 -6 -10 -10 -3 -10 6 0 15 5 18 10 8 12 4 12 -15 0z"/>
<path d="M5215 610 c-3 -5 -1 -10 4 -10 6 0 11 5 11 10 0 6 -2 10 -4 10 -3 0
-8 -4 -11 -10z"/>
<path d="M6341 587 c-7 -20 -17 -37 -22 -37 -6 0 -7 5 -4 10 3 6 -1 10 -9 10
-9 0 -16 4 -16 10 0 5 -17 9 -37 8 -21 -1 -44 0 -52 3 -21 6 -45 -103 -34
-156 7 -34 12 -40 33 -39 57 3 86 8 97 17 7 5 17 6 22 2 6 -3 23 2 38 12 15 9
25 13 21 8 -13 -14 13 -35 43 -35 38 0 53 29 44 87 -4 25 -10 55 -14 65 -6 18
-9 18 -22 6 -15 -16 -39 -13 -39 4 0 6 7 8 14 5 9 -4 17 2 21 13 7 24 -2 43
-17 34 -7 -4 -6 -9 2 -14 9 -6 6 -11 -10 -20 -12 -6 -23 -10 -24 -8 -1 2 -7
14 -12 28 -11 25 -11 25 -23 -13z"/>
<path d="M3166 591 c-22 -10 -31 -11 -34 -3 -7 21 -72 11 -72 -10 0 -5 14 -7
33 -4 l32 6 -32 -17 c-31 -16 -33 -20 -33 -72 0 -58 11 -88 27 -78 18 11 63
16 58 6 -4 -5 -11 -7 -16 -4 -5 4 -9 -9 -8 -27 0 -18 3 -27 6 -20 7 18 21 15
28 -8 4 -11 10 -18 15 -15 5 3 7 12 4 20 -4 10 1 13 18 11 39 -4 47 -13 39
-49 -6 -22 -4 -37 5 -45 9 -8 12 -28 10 -55 -2 -23 -1 -33 1 -23 3 11 11 26
19 34 8 8 12 22 9 33 -8 24 -2 24 21 2 16 -16 16 -16 8 7 -4 14 -8 35 -7 48 1
15 -5 22 -18 22 -10 0 -19 3 -19 8 0 11 20 39 20 28 0 -5 9 3 21 18 21 27 33
86 16 86 -4 0 -5 6 0 13 18 29 -1 48 -24 22 -4 -4 -2 -5 6 0 8 5 12 4 8 -1 -3
-6 -23 -11 -44 -11 -22 -1 -31 1 -21 5 25 10 78 61 78 73 0 8 -4 8 -15 -1 -8
-6 -19 -9 -25 -5 -5 3 -13 0 -16 -9 -9 -22 -31 -27 -46 -8 -7 8 -8 13 -2 9 6
-3 20 1 30 9 10 9 13 13 7 9 -7 -3 -13 -1 -13 6 0 8 -4 8 -16 -2 -10 -8 -18
-9 -22 -3 -5 6 -18 5 -36 -5z m34 -16 c0 -8 -4 -15 -10 -15 -5 0 -7 7 -4 15 4
8 8 15 10 15 2 0 4 -7 4 -15z m60 -95 c0 -5 -4 -10 -10 -10 -5 0 -10 5 -10 10
0 6 5 10 10 10 6 0 10 -4 10 -10z"/>
<path d="M3554 596 c-5 -14 -9 -15 -15 -5 -6 10 -9 9 -15 -4 -5 -14 -9 -15
-20 -6 -8 7 -18 9 -21 5 -7 -7 9 -21 31 -29 5 -2 10 -28 11 -58 2 -62 12 -99
26 -99 6 0 7 -4 4 -10 -3 -5 -1 -10 4 -10 6 0 11 4 11 9 0 17 55 5 58 -13 2
-10 10 -15 18 -12 9 3 15 -6 20 -29 3 -19 11 -35 16 -35 5 0 7 -14 3 -33 l-6
-32 24 27 c14 15 28 24 33 20 4 -4 4 -1 0 6 -4 6 -13 12 -21 12 -7 0 -16 9
-20 20 -7 23 24 72 42 65 15 -5 42 26 42 50 0 11 3 31 6 45 5 21 2 28 -19 40
-14 7 -26 18 -26 23 0 6 -9 2 -20 -8 -18 -16 -20 -16 -20 -2 0 9 12 28 27 42
29 26 21 34 -10 11 -10 -8 -27 -12 -38 -9 -15 4 -18 2 -13 -12 5 -12 9 -13 14
-5 5 8 10 9 14 2 3 -6 -7 -17 -23 -25 -26 -13 -32 -13 -42 -1 -6 8 -17 14 -25
14 -12 0 -41 40 -35 48 2 2 0 6 -3 9 -3 3 -9 -2 -12 -11z m6 -51 c-7 -9 -15
-13 -19 -10 -3 3 1 10 9 15 21 14 24 12 10 -5z m179 -136 c-16 -10 -23 -4 -14
10 3 6 11 8 17 5 6 -4 5 -9 -3 -15z"/>
<path d="M4000 600 c-12 -7 -10 -130 2 -130 3 0 4 -8 1 -19 -6 -22 14 -38 29
-23 6 6 18 7 27 3 38 -19 108 -38 126 -34 11 2 32 5 48 5 20 1 27 7 28 22 0
12 2 56 4 99 4 76 4 77 -17 66 -17 -9 -18 -13 -7 -20 10 -6 8 -9 -9 -9 -13 0
-21 4 -18 8 3 5 -15 8 -39 8 -25 -1 -45 -4 -45 -9 0 -9 -51 -30 -57 -23 -3 2
0 13 6 23 8 17 5 21 -29 30 -21 5 -44 7 -50 3z m249 -106 c-12 -15 -39 -7 -39
10 0 21 11 25 31 13 13 -8 15 -15 8 -23z m-174 -2 c-8 -8 -25 10 -19 20 4 6 9
5 15 -3 4 -7 6 -15 4 -17z"/>
<path d="M5715 594 c-14 -14 -13 -47 2 -64 8 -8 58 29 61 46 7 32 -36 44 -63
18z"/>
<path d="M6737 603 c-4 -3 -7 -13 -7 -20 0 -12 3 -12 15 1 8 8 15 17 15 20 0
8 -15 7 -23 -1z"/>
<path d="M6789 603 c-1 -5 -1 -12 0 -16 1 -5 -3 -6 -8 -3 -5 4 -16 -1 -24 -9
-19 -19 -37 -19 -37 -2 0 8 -9 13 -22 11 -13 -1 -29 -3 -35 -3 -16 -1 -18
-113 -3 -141 9 -17 19 -19 65 -15 46 3 57 1 67 -15 9 -14 16 -16 25 -8 10 8
13 7 13 -5 0 -8 -7 -18 -16 -21 -22 -8 -21 -9 -28 19 -7 26 -26 35 -26 11 0
-7 -3 -29 -7 -47 l-6 -34 22 19 c16 15 20 16 16 4 -4 -10 1 -17 14 -21 11 -3
20 -2 19 2 -2 19 3 31 12 26 5 -3 12 6 16 20 6 26 24 35 24 13 1 -7 6 -4 13 7
7 12 20 19 30 17 9 -2 17 0 18 5 0 4 3 28 5 52 3 24 3 55 -1 69 -5 21 -8 22
-18 9 -22 -27 -61 -47 -76 -38 -7 5 -10 14 -7 20 9 15 -7 14 -22 -1 -9 -9 -12
-8 -12 4 0 9 10 24 22 32 l22 16 -21 0 c-16 0 -21 4 -17 15 4 8 1 15 -5 15 -6
0 -12 -3 -12 -7z"/>
<path d="M7880 596 c0 -17 14 -29 23 -20 8 8 -3 34 -14 34 -5 0 -9 -6 -9 -14z"/>
<path d="M9503 600 c-13 -5 -23 -12 -23 -14 0 -3 7 -3 15 0 18 7 20 -7 3 -24
-9 -9 -8 -12 6 -12 20 0 56 35 56 54 0 6 -5 4 -10 -4 -6 -10 -10 -11 -10 -2 0
14 -6 14 -37 2z"/>
<path d="M4140 596 c0 -2 7 -7 16 -10 8 -3 12 -2 9 4 -6 10 -25 14 -25 6z"/>
<path d="M4676 591 c-4 -7 -5 -15 -2 -18 9 -9 19 4 14 18 -4 11 -6 11 -12 0z"/>
<path d="M9385 583 c2 -10 6 -45 9 -78 3 -33 5 -61 6 -63 0 -6 110 7 122 14 6
4 8 3 5 -3 -12 -19 60 -33 77 -16 11 11 48 14 41 3 -3 -5 -13 -10 -21 -10 -12
0 -13 -8 -8 -37 8 -45 14 -55 14 -24 0 12 4 19 10 16 6 -3 10 1 10 10 0 10 -5
14 -12 10 -7 -3 -3 2 10 11 19 14 22 26 22 80 0 35 -3 64 -8 64 -14 0 -52 -31
-48 -39 3 -4 -5 -7 -17 -6 -14 1 -24 10 -27 26 -5 21 -7 22 -13 6 -4 -11 -5
-22 -3 -26 3 -4 -7 -6 -22 -4 -15 2 -33 -1 -41 -6 -13 -8 -13 -12 0 -27 13
-16 12 -17 -4 -11 -10 4 -23 7 -28 7 -13 0 0 42 15 52 6 4 7 10 4 14 -4 3 -21
-9 -39 -27 -29 -32 -31 -32 -24 -9 4 14 16 35 27 47 20 21 20 21 0 32 -32 17
-61 14 -57 -6z"/>
<path d="M896 581 c-4 -7 -5 -15 -2 -18 9 -9 19 4 14 18 -4 11 -6 11 -12 0z"/>
<path d="M1469 583 c-1 -5 -1 -12 0 -16 1 -5 -3 -6 -8 -2 -6 3 -20 -4 -31 -15
-17 -17 -20 -31 -18 -78 l3 -57 40 -1 c22 -1 58 2 81 6 40 7 77 -6 73 -26 -5
-27 2 -84 10 -84 6 0 9 20 8 44 -1 24 1 42 5 40 4 -3 11 4 17 13 6 10 11 14
11 8 0 -13 20 16 20 30 0 6 -5 3 -10 -5 -8 -12 -10 -10 -10 8 0 13 4 21 9 18
5 -3 11 9 13 27 3 32 3 32 -32 29 -19 -2 -30 0 -25 5 6 4 11 16 11 25 1 14 -4
16 -27 11 -19 -3 -29 -1 -29 6 0 7 -5 9 -10 6 -6 -4 -8 -11 -5 -16 4 -5 -1
-12 -9 -15 -9 -3 -14 -10 -11 -14 3 -5 0 -12 -7 -16 -7 -4 -10 -4 -6 1 4 4 0
14 -8 23 -9 8 -13 24 -11 34 5 16 3 17 -9 7 -10 -8 -14 -8 -14 0 0 12 -19 16
-21 4z m124 -46 c3 -7 -3 -13 -14 -13 -13 0 -15 3 -7 13 6 7 12 13 13 13 2 0
5 -6 8 -13z m-113 -13 c0 -8 -4 -12 -10 -9 -5 3 -10 10 -10 16 0 5 5 9 10 9 6
0 10 -7 10 -16z m35 -44 c3 -5 -1 -10 -9 -10 -9 0 -16 5 -16 10 0 6 4 10 9 10
6 0 13 -4 16 -10z"/>
<path d="M2018 583 c7 -3 16 -2 19 1 4 3 -2 6 -13 5 -11 0 -14 -3 -6 -6z"/>
<path d="M2645 580 c-3 -5 -1 -10 5 -10 6 0 8 -5 5 -10 -4 -6 -12 -4 -21 5
-17 17 -28 20 -19 6 3 -5 -5 -18 -18 -28 -16 -13 -22 -27 -20 -49 1 -19 -4
-37 -12 -44 -20 -17 -20 -70 0 -70 14 0 19 -16 16 -52 -1 -9 8 -36 19 -59 l22
-41 14 27 c18 35 18 41 -3 24 -15 -13 -16 -11 -10 12 4 17 1 38 -8 55 -19 36
-19 61 -1 80 8 7 13 22 12 31 -2 10 -1 12 1 5 3 -7 9 -10 14 -7 5 4 9 -1 9 -9
0 -8 -4 -18 -10 -21 -5 -3 -10 -15 -10 -26 0 -10 5 -19 10 -19 6 0 10 8 10 18
0 10 7 27 15 38 13 17 16 17 28 4 6 -9 20 -14 29 -12 12 2 16 -1 13 -11 -4 -8
0 -14 9 -14 8 0 13 8 11 18 -2 10 0 21 6 24 5 4 9 1 9 -5 0 -7 9 -23 20 -37
19 -25 20 -25 20 -4 0 12 6 24 13 27 8 3 14 10 14 17 0 7 4 21 8 31 7 16 5 18
-14 13 -14 -3 -24 0 -28 9 -3 8 -9 11 -14 8 -5 -3 -7 -10 -4 -15 4 -5 1 -9 -5
-9 -19 0 -22 28 -6 52 20 28 20 38 1 38 -9 0 -15 -9 -15 -25 0 -14 -4 -25 -10
-25 -5 0 -7 -7 -4 -15 4 -10 0 -15 -14 -15 -11 0 -28 -7 -36 -16 -24 -23 -39
-7 -20 22 12 17 22 23 35 19 24 -8 25 11 2 24 -14 8 -15 12 -4 25 16 19 8 20
-22 4 -20 -10 -21 -10 -8 5 12 15 11 17 -7 17 -12 0 -24 -4 -27 -10z m-11 -39
c3 -5 -1 -11 -9 -14 -9 -4 -12 -1 -8 9 6 16 10 17 17 5z m-50 -116 c-7 -16
-24 -21 -24 -6 0 8 7 13 27 20 1 1 0 -6 -3 -14z"/>
<path d="M2822 578 c-7 -7 -12 -19 -11 -27 0 -11 2 -12 6 -3 2 6 8 10 13 7 4
-3 10 4 13 15 6 23 -3 26 -21 8z"/>
<path d="M4107 583 c-4 -3 -7 -11 -7 -17 0 -6 5 -5 12 2 6 6 9 14 7 17 -3 3
-9 2 -12 -2z"/>
<path d="M4610 579 c0 -5 5 -7 10 -4 6 3 10 8 10 11 0 2 -4 4 -10 4 -5 0 -10
-5 -10 -11z"/>
<path d="M1972 519 c-2 -35 3 -76 9 -91 8 -19 8 -32 2 -41 -16 -19 -24 -65
-13 -72 6 -3 14 4 19 17 7 17 10 19 10 6 1 -10 8 -18 17 -18 12 0 15 6 10 26
-4 16 -3 23 3 20 5 -4 13 -1 16 5 4 5 13 8 20 5 8 -3 17 4 20 15 8 25 25 25
25 -2 0 -11 4 -17 10 -14 7 4 8 -3 4 -22 -7 -26 -6 -27 11 -13 17 14 18 13 13
-32 -3 -27 -1 -51 5 -57 8 -8 6 -11 -6 -11 -9 0 -17 -5 -17 -11 0 -6 8 -9 18
-7 9 2 17 11 17 21 0 10 8 23 18 28 24 14 21 32 -4 26 -18 -5 -20 -2 -15 16 3
12 6 28 6 35 0 18 18 15 24 -5 2 -10 2 3 -1 30 -4 34 -1 54 11 72 18 28 21 39
6 30 -16 -10 -12 3 15 45 26 42 35 79 11 48 -15 -21 -27 -23 -22 -5 1 6 1 9
-1 5 -3 -5 -12 -8 -22 -8 -9 0 -26 -7 -37 -15 -29 -22 -38 -18 -20 10 9 14 13
25 8 25 -5 0 -15 -11 -22 -25 -16 -30 -30 -32 -37 -5 -4 15 -13 20 -37 19 -17
-1 -40 2 -51 5 -19 7 -21 3 -23 -55z m175 -13 c-3 -8 -1 -17 6 -20 7 -2 4 -5
-5 -5 -10 -1 -18 1 -18 3 0 2 -3 11 -6 20 -4 11 -1 16 11 16 11 0 15 -5 12
-14z m-27 -26 c0 -5 -5 -10 -11 -10 -5 0 -7 5 -4 10 3 6 8 10 11 10 2 0 4 -4
4 -10z m50 -76 c0 -8 -4 -12 -10 -9 -5 3 -10 10 -10 16 0 5 5 9 10 9 6 0 10
-7 10 -16z"/>
<path d="M4517 564 c2 -7 11 -10 19 -7 19 7 18 10 -5 16 -13 3 -18 1 -14 -9z"/>
<path d="M1520 560 c0 -5 5 -10 10 -10 6 0 10 5 10 10 0 6 -4 10 -10 10 -5 0
-10 -4 -10 -10z"/>
<path d="M1650 550 c0 -13 18 -22 24 -11 3 5 -1 11 -9 15 -8 3 -15 1 -15 -4z"/>
<path d="M3776 541 c-4 -7 -5 -15 -2 -18 9 -9 19 4 14 18 -4 11 -6 11 -12 0z"/>
<path d="M4487 533 c-10 -9 -9 -51 1 -57 5 -3 9 0 10 7 0 7 4 22 7 35 7 21 -4
30 -18 15z"/>
<path d="M1220 486 c0 -8 6 -17 13 -19 9 -4 8 -8 -3 -16 -17 -12 -10 -23 8
-12 9 5 11 17 6 34 -6 28 -24 37 -24 13z"/>
<path d="M500 430 c0 -19 3 -21 12 -12 9 9 9 15 0 24 -9 9 -12 7 -12 -12z"/>
<path d="M2220 440 c0 -5 5 -10 10 -10 6 0 10 5 10 10 0 6 -4 10 -10 10 -5 0
-10 -4 -10 -10z"/>
<path d="M978 406 c-10 -7 -18 -21 -18 -31 0 -14 3 -15 15 -5 17 14 18 12 16
-47 -1 -32 3 -43 14 -43 8 0 14 -6 13 -12 -2 -7 3 -12 10 -10 6 1 12 -3 12 -9
0 -5 5 -7 10 -4 17 10 12 48 -5 41 -20 -7 -19 4 1 18 8 7 17 23 19 36 2 14 5
32 7 40 2 8 -1 16 -7 17 -5 1 -9 -6 -8 -15 1 -10 0 -11 -3 -4 -3 6 -12 12 -19
12 -7 0 -15 7 -19 15 -7 18 -16 18 -38 1z m47 -86 c3 -5 1 -10 -4 -10 -6 0
-11 5 -11 10 0 6 2 10 4 10 3 0 8 -4 11 -10z"/>
<path d="M540 383 c0 -8 5 -13 12 -11 18 6 21 25 3 25 -8 0 -15 -7 -15 -14z"/>
<path d="M9100 385 c0 -8 2 -15 4 -15 2 0 6 7 10 15 3 8 1 15 -4 15 -6 0 -10
-7 -10 -15z"/>
<path d="M497 383 c-4 -3 -7 -20 -6 -37 0 -17 3 -25 6 -19 3 10 8 9 20 -2 10
-10 12 -20 6 -28 -5 -7 -10 -36 -11 -64 -2 -59 11 -68 40 -28 21 28 14 55 -14
55 -13 0 -17 4 -11 13 4 6 8 19 10 27 1 8 7 16 12 18 6 2 11 11 11 20 -1 15
-2 15 -14 -1 -12 -16 -14 -15 -20 18 -7 34 -15 42 -29 28z"/>
<path d="M9177 373 c-11 -10 -8 -148 3 -178 5 -14 14 -23 20 -20 6 3 10 -5 10
-19 0 -13 -6 -27 -12 -29 -10 -4 -10 -6 0 -6 18 -1 41 23 42 45 5 61 0 188 -7
194 -13 12 -49 21 -56 13z"/>
<path d="M1650 349 c0 -11 5 -17 10 -14 6 3 10 13 10 21 0 8 -4 14 -10 14 -5
0 -10 -9 -10 -21z"/>
<path d="M8627 357 c-28 -12 -28 -12 -7 -27 11 -8 20 -25 20 -37 0 -13 5 -23
11 -23 5 0 7 -5 3 -12 -4 -7 -3 -8 4 -4 7 4 12 2 12 -5 0 -8 4 -8 15 1 8 7 14
24 13 39 -1 14 2 36 6 48 8 25 -9 40 -28 23 -8 -6 -15 -7 -18 -1 -2 5 -14 5
-31 -2z"/>
<path d="M2765 351 c-3 -5 -1 -12 5 -16 5 -3 10 1 10 9 0 18 -6 21 -15 7z"/>
<path d="M3710 346 c0 -24 17 -28 23 -6 3 13 0 20 -9 20 -8 0 -14 -6 -14 -14z"/>
<path d="M956 329 c3 -5 12 -9 21 -9 19 0 9 13 -12 16 -8 1 -13 -2 -9 -7z"/>
<path d="M2805 320 c-3 -5 -1 -10 4 -10 6 0 11 5 11 10 0 6 -2 10 -4 10 -3 0
-8 -4 -11 -10z"/>
<path d="M6389 279 c-1 -24 -3 -60 -4 -79 -2 -23 3 -44 14 -59 18 -23 18 -23
39 -5 18 15 22 29 22 84 0 75 -5 86 -43 95 -26 7 -27 6 -28 -36z"/>
<path d="M5840 295 c-21 -11 -21 -11 -2 -29 11 -9 18 -25 15 -35 -3 -14 3 -20
23 -25 33 -9 39 0 39 56 0 40 -2 43 -27 43 -15 1 -37 -4 -48 -10z"/>
<path d="M6856 294 c-4 -10 -1 -24 8 -33 14 -13 16 -13 22 3 4 10 1 24 -8 33
-14 13 -16 13 -22 -3z"/>
<path d="M1990 289 c0 -5 5 -7 10 -4 6 3 10 8 10 11 0 2 -4 4 -10 4 -5 0 -10
-5 -10 -11z"/>
<path d="M4719 296 c-2 -3 -18 -6 -34 -9 -16 -2 -31 -9 -33 -15 -5 -16 11 -15
26 0 8 8 12 8 12 1 0 -12 -23 -23 -50 -23 -20 0 -31 -30 -19 -52 4 -7 4 -20
-1 -28 -7 -10 -10 -11 -10 -2 0 6 -5 12 -12 12 -6 0 -3 -9 7 -20 17 -19 17
-20 0 -20 -17 0 -17 -2 3 -20 26 -25 29 -42 5 -33 -13 5 -15 2 -10 -11 4 -10
7 -22 7 -27 0 -5 12 -9 26 -9 25 0 26 2 20 40 -6 36 -4 40 14 40 15 0 20 6 19
28 0 24 -1 25 -9 7 -5 -11 -9 -16 -9 -11 -1 5 -8 3 -16 -4 -9 -7 -18 -11 -20
-8 -10 10 7 37 26 43 14 5 18 12 14 26 -7 20 5 35 43 57 20 11 22 10 22 -10 0
-13 4 -29 9 -37 14 -21 25 7 13 32 -6 12 -13 30 -16 40 -5 16 -18 22 -27 13z
m-72 -80 c0 -8 -6 -12 -15 -9 -11 5 -11 7 0 14 7 5 13 9 14 9 0 0 1 -6 1 -14z"/>
<path d="M9593 288 c1 -34 -5 -82 -10 -70 -8 20 -23 14 -23 -10 0 -13 -4 -29
-9 -37 -15 -23 -1 -51 25 -49 13 1 24 6 24 10 0 4 7 5 15 2 12 -5 14 0 9 25
-4 20 -3 31 5 31 6 0 11 15 11 33 0 18 5 38 12 45 15 15 11 18 -28 26 -23 5
-32 4 -31 -6z m30 -23 c-3 -9 -8 -14 -10 -11 -3 3 -2 9 2 15 9 16 15 13 8 -4z"/>
<path d="M4593 248 c-19 -25 -24 -38 -14 -38 11 0 35 39 28 46 -2 3 -9 -1 -14
-8z"/>
<path d="M8983 245 c0 -8 4 -12 9 -9 4 3 8 9 8 15 0 5 -4 9 -8 9 -5 0 -9 -7
-9 -15z"/>
<path d="M994 188 c1 -51 -3 -70 -17 -86 -26 -29 -14 -42 39 -42 44 0 44 0 46
38 3 60 0 83 -13 98 -9 12 -15 12 -27 2 -13 -11 -15 -10 -10 4 4 9 1 24 -6 34
-11 15 -13 7 -12 -48z m43 -30 c-3 -8 -6 -5 -6 6 -1 11 2 17 5 13 3 -3 4 -12
1 -19z"/>
<path d="M2580 245 c0 -5 5 -17 10 -25 5 -8 10 -10 10 -5 0 6 -5 17 -10 25 -5
8 -10 11 -10 5z"/>
<path d="M3713 222 c-8 -5 -9 -13 -3 -22 11 -17 23 -8 18 14 -2 9 -8 12 -15 8z"/>
<path d="M2149 198 c-1 -7 -1 -17 0 -22 1 -5 -6 -17 -16 -28 -16 -18 -16 -19
3 -11 18 7 19 6 1 -21 l-18 -27 25 16 c24 16 32 35 26 60 -2 6 -2 18 -2 28 1
19 -17 24 -19 5z"/>
<path d="M2790 174 c0 -10 -6 -14 -15 -10 -19 7 -32 -19 -31 -64 1 -33 3 -35
39 -38 34 -3 37 -1 37 23 0 14 -4 24 -8 21 -5 -3 -7 15 -6 40 2 24 -1 44 -7
44 -5 0 -9 -7 -9 -16z"/>
<path d="M8970 166 c0 -9 5 -16 10 -16 6 0 10 4 10 9 0 6 -4 13 -10 16 -5 3
-10 -1 -10 -9z"/>
<path d="M2150 86 c0 -8 -6 -17 -12 -19 -7 -3 -3 -6 10 -6 16 -1 22 5 22 19 0
11 -4 20 -10 20 -5 0 -10 -6 -10 -14z"/>
</g>
</svg>
